<svg xmlns="http://www.w3.org/2000/svg" xmlns:xlink="http://www.w3.org/1999/xlink" width="150" height="100" viewBox="0 0 600 400">
<defs>
  <clipPath id="clip770">
    <rect x="0" y="0" width="600" height="400"></rect>
  </clipPath>
</defs>
<path clip-path="url(#clip770)" d="
M0 400 L600 400 L600 0 L0 0  Z
  " fill="#ffffff" fill-rule="evenodd" fill-opacity="1"></path>
<defs>
  <clipPath id="clip771">
    <rect x="120" y="0" width="421" height="400"></rect>
  </clipPath>
</defs>
<path clip-path="url(#clip770)" d="
M41.5512 371.612 L588.189 371.612 L588.189 11.811 L41.5512 11.811  Z
  " fill="#ffffff" fill-rule="evenodd" fill-opacity="1"></path>
<defs>
  <clipPath id="clip772">
    <rect x="41" y="11" width="548" height="361"></rect>
  </clipPath>
</defs>
<polyline clip-path="url(#clip772)" style="stroke:#000000; stroke-width:0.5; stroke-opacity:0.1; fill:none" points="
  63.8949,371.612 63.8949,11.811 
  "></polyline>
<polyline clip-path="url(#clip772)" style="stroke:#000000; stroke-width:0.5; stroke-opacity:0.1; fill:none" points="
  141.118,371.612 141.118,11.811 
  "></polyline>
<polyline clip-path="url(#clip772)" style="stroke:#000000; stroke-width:0.5; stroke-opacity:0.1; fill:none" points="
  218.341,371.612 218.341,11.811 
  "></polyline>
<polyline clip-path="url(#clip772)" style="stroke:#000000; stroke-width:0.5; stroke-opacity:0.1; fill:none" points="
  295.564,371.612 295.564,11.811 
  "></polyline>
<polyline clip-path="url(#clip772)" style="stroke:#000000; stroke-width:0.5; stroke-opacity:0.1; fill:none" points="
  372.787,371.612 372.787,11.811 
  "></polyline>
<polyline clip-path="url(#clip772)" style="stroke:#000000; stroke-width:0.5; stroke-opacity:0.1; fill:none" points="
  450.011,371.612 450.011,11.811 
  "></polyline>
<polyline clip-path="url(#clip772)" style="stroke:#000000; stroke-width:0.5; stroke-opacity:0.1; fill:none" points="
  527.234,371.612 527.234,11.811 
  "></polyline>
<polyline clip-path="url(#clip770)" style="stroke:#000000; stroke-width:1; stroke-opacity:1; fill:none" points="
  41.5512,371.612 588.189,371.612 
  "></polyline>
<polyline clip-path="url(#clip770)" style="stroke:#000000; stroke-width:1; stroke-opacity:1; fill:none" points="
  63.8949,371.612 63.8949,367.294 
  "></polyline>
<polyline clip-path="url(#clip770)" style="stroke:#000000; stroke-width:1; stroke-opacity:1; fill:none" points="
  141.118,371.612 141.118,367.294 
  "></polyline>
<polyline clip-path="url(#clip770)" style="stroke:#000000; stroke-width:1; stroke-opacity:1; fill:none" points="
  218.341,371.612 218.341,367.294 
  "></polyline>
<polyline clip-path="url(#clip770)" style="stroke:#000000; stroke-width:1; stroke-opacity:1; fill:none" points="
  295.564,371.612 295.564,367.294 
  "></polyline>
<polyline clip-path="url(#clip770)" style="stroke:#000000; stroke-width:1; stroke-opacity:1; fill:none" points="
  372.787,371.612 372.787,367.294 
  "></polyline>
<polyline clip-path="url(#clip770)" style="stroke:#000000; stroke-width:1; stroke-opacity:1; fill:none" points="
  450.011,371.612 450.011,367.294 
  "></polyline>
<polyline clip-path="url(#clip770)" style="stroke:#000000; stroke-width:1; stroke-opacity:1; fill:none" points="
  527.234,371.612 527.234,367.294 
  "></polyline>
<path clip-path="url(#clip770)" d="M 0 0 M50.3215 385.796 L52.2312 385.796 L52.2312 379.205 L50.1537 379.621 L50.1537 378.557 L52.2196 378.14 L53.3886 378.14 L53.3886 385.796 L55.2983 385.796 L55.2983 386.78 L50.3215 386.78 L50.3215 385.796 Z" fill="#000000" fill-rule="evenodd" fill-opacity="1"></path><path clip-path="url(#clip770)" d="M 0 0 M56.5657 385.31 L57.7867 385.31 L57.7867 386.78 L56.5657 386.78 L56.5657 385.31 Z" fill="#000000" fill-rule="evenodd" fill-opacity="1"></path><path clip-path="url(#clip770)" d="M 0 0 M61.5541 378.91 Q60.6513 378.91 60.1941 379.801 Q59.7427 380.686 59.7427 382.469 Q59.7427 384.245 60.1941 385.136 Q60.6513 386.022 61.5541 386.022 Q62.4626 386.022 62.914 385.136 Q63.3712 384.245 63.3712 382.469 Q63.3712 380.686 62.914 379.801 Q62.4626 378.91 61.5541 378.91 M61.5541 377.984 Q63.0066 377.984 63.7705 379.135 Q64.5402 380.281 64.5402 382.469 Q64.5402 384.65 63.7705 385.802 Q63.0066 386.948 61.5541 386.948 Q60.1015 386.948 59.3319 385.802 Q58.568 384.65 58.568 382.469 Q58.568 380.281 59.3319 379.135 Q60.1015 377.984 61.5541 377.984 Z" fill="#000000" fill-rule="evenodd" fill-opacity="1"></path><path clip-path="url(#clip770)" d="M 0 0 M69.3492 382.121 Q70.1883 382.301 70.657 382.868 Q71.1316 383.435 71.1316 384.268 Q71.1316 385.547 70.2519 386.248 Q69.3723 386.948 67.7519 386.948 Q67.208 386.948 66.6293 386.838 Q66.0564 386.734 65.4429 386.52 L65.4429 385.391 Q65.929 385.675 66.5077 385.819 Q67.0864 385.964 67.7172 385.964 Q68.8168 385.964 69.3897 385.53 Q69.9684 385.096 69.9684 384.268 Q69.9684 383.505 69.4302 383.076 Q68.8978 382.642 67.9429 382.642 L66.936 382.642 L66.936 381.682 L67.9892 381.682 Q68.8515 381.682 69.3087 381.34 Q69.7658 380.993 69.7658 380.345 Q69.7658 379.679 69.2913 379.326 Q68.8225 378.968 67.9429 378.968 Q67.4626 378.968 66.9128 379.072 Q66.3631 379.176 65.7033 379.396 L65.7033 378.354 Q66.3689 378.169 66.9476 378.076 Q67.532 377.984 68.0471 377.984 Q69.3781 377.984 70.1536 378.591 Q70.929 379.193 70.929 380.223 Q70.929 380.941 70.5181 381.439 Q70.1073 381.93 69.3492 382.121 Z" fill="#000000" fill-rule="evenodd" fill-opacity="1"></path><path clip-path="url(#clip770)" d="M 0 0 M72.4105 378.14 L76.9996 378.14 L76.9996 379.124 L73.4811 379.124 L73.4811 381.242 Q73.7357 381.155 73.9903 381.114 Q74.245 381.068 74.4996 381.068 Q75.9463 381.068 76.7912 381.861 Q77.6362 382.654 77.6362 384.008 Q77.6362 385.403 76.7681 386.178 Q75.9 386.948 74.3202 386.948 Q73.7762 386.948 73.2091 386.855 Q72.6478 386.763 72.0459 386.577 L72.0459 385.403 Q72.5667 385.686 73.1223 385.825 Q73.6778 385.964 74.297 385.964 Q75.2982 385.964 75.8827 385.437 Q76.4672 384.911 76.4672 384.008 Q76.4672 383.105 75.8827 382.579 Q75.2982 382.052 74.297 382.052 Q73.8283 382.052 73.3596 382.156 Q72.8966 382.26 72.4105 382.48 L72.4105 378.14 Z" fill="#000000" fill-rule="evenodd" fill-opacity="1"></path><path clip-path="url(#clip770)" d="M 0 0 M127.278 385.796 L129.188 385.796 L129.188 379.205 L127.111 379.621 L127.111 378.557 L129.177 378.14 L130.346 378.14 L130.346 385.796 L132.255 385.796 L132.255 386.78 L127.278 386.78 L127.278 385.796 Z" fill="#000000" fill-rule="evenodd" fill-opacity="1"></path><path clip-path="url(#clip770)" d="M 0 0 M133.523 385.31 L134.744 385.31 L134.744 386.78 L133.523 386.78 L133.523 385.31 Z" fill="#000000" fill-rule="evenodd" fill-opacity="1"></path><path clip-path="url(#clip770)" d="M 0 0 M138.511 378.91 Q137.608 378.91 137.151 379.801 Q136.7 380.686 136.7 382.469 Q136.7 384.245 137.151 385.136 Q137.608 386.022 138.511 386.022 Q139.42 386.022 139.871 385.136 Q140.328 384.245 140.328 382.469 Q140.328 380.686 139.871 379.801 Q139.42 378.91 138.511 378.91 M138.511 377.984 Q139.964 377.984 140.727 379.135 Q141.497 380.281 141.497 382.469 Q141.497 384.65 140.727 385.802 Q139.964 386.948 138.511 386.948 Q137.058 386.948 136.289 385.802 Q135.525 384.65 135.525 382.469 Q135.525 380.281 136.289 379.135 Q137.058 377.984 138.511 377.984 Z" fill="#000000" fill-rule="evenodd" fill-opacity="1"></path><path clip-path="url(#clip770)" d="M 0 0 M145.976 379.158 L143.025 383.771 L145.976 383.771 L145.976 379.158 M145.67 378.14 L147.139 378.14 L147.139 383.771 L148.372 383.771 L148.372 384.743 L147.139 384.743 L147.139 386.78 L145.976 386.78 L145.976 384.743 L142.076 384.743 L142.076 383.614 L145.67 378.14 Z" fill="#000000" fill-rule="evenodd" fill-opacity="1"></path><path clip-path="url(#clip770)" d="M 0 0 M152.139 378.91 Q151.237 378.91 150.779 379.801 Q150.328 380.686 150.328 382.469 Q150.328 384.245 150.779 385.136 Q151.237 386.022 152.139 386.022 Q153.048 386.022 153.499 385.136 Q153.957 384.245 153.957 382.469 Q153.957 380.686 153.499 379.801 Q153.048 378.91 152.139 378.91 M152.139 377.984 Q153.592 377.984 154.356 379.135 Q155.125 380.281 155.125 382.469 Q155.125 384.65 154.356 385.802 Q153.592 386.948 152.139 386.948 Q150.687 386.948 149.917 385.802 Q149.153 384.65 149.153 382.469 Q149.153 380.281 149.917 379.135 Q150.687 377.984 152.139 377.984 Z" fill="#000000" fill-rule="evenodd" fill-opacity="1"></path><path clip-path="url(#clip770)" d="M 0 0 M204.626 385.796 L206.536 385.796 L206.536 379.205 L204.458 379.621 L204.458 378.557 L206.524 378.14 L207.693 378.14 L207.693 385.796 L209.603 385.796 L209.603 386.78 L204.626 386.78 L204.626 385.796 Z" fill="#000000" fill-rule="evenodd" fill-opacity="1"></path><path clip-path="url(#clip770)" d="M 0 0 M210.87 385.31 L212.091 385.31 L212.091 386.78 L210.87 386.78 L210.87 385.31 Z" fill="#000000" fill-rule="evenodd" fill-opacity="1"></path><path clip-path="url(#clip770)" d="M 0 0 M215.859 378.91 Q214.956 378.91 214.499 379.801 Q214.047 380.686 214.047 382.469 Q214.047 384.245 214.499 385.136 Q214.956 386.022 215.859 386.022 Q216.767 386.022 217.218 385.136 Q217.676 384.245 217.676 382.469 Q217.676 380.686 217.218 379.801 Q216.767 378.91 215.859 378.91 M215.859 377.984 Q217.311 377.984 218.075 379.135 Q218.845 380.281 218.845 382.469 Q218.845 384.65 218.075 385.802 Q217.311 386.948 215.859 386.948 Q214.406 386.948 213.636 385.802 Q212.872 384.65 212.872 382.469 Q212.872 380.281 213.636 379.135 Q214.406 377.984 215.859 377.984 Z" fill="#000000" fill-rule="evenodd" fill-opacity="1"></path><path clip-path="url(#clip770)" d="M 0 0 M223.324 379.158 L220.372 383.771 L223.324 383.771 L223.324 379.158 M223.017 378.14 L224.487 378.14 L224.487 383.771 L225.72 383.771 L225.72 384.743 L224.487 384.743 L224.487 386.78 L223.324 386.78 L223.324 384.743 L219.423 384.743 L219.423 383.614 L223.017 378.14 Z" fill="#000000" fill-rule="evenodd" fill-opacity="1"></path><path clip-path="url(#clip770)" d="M 0 0 M226.999 378.14 L231.588 378.14 L231.588 379.124 L228.069 379.124 L228.069 381.242 Q228.324 381.155 228.578 381.114 Q228.833 381.068 229.088 381.068 Q230.534 381.068 231.379 381.861 Q232.224 382.654 232.224 384.008 Q232.224 385.403 231.356 386.178 Q230.488 386.948 228.908 386.948 Q228.364 386.948 227.797 386.855 Q227.236 386.763 226.634 386.577 L226.634 385.403 Q227.155 385.686 227.71 385.825 Q228.266 385.964 228.885 385.964 Q229.886 385.964 230.471 385.437 Q231.055 384.911 231.055 384.008 Q231.055 383.105 230.471 382.579 Q229.886 382.052 228.885 382.052 Q228.416 382.052 227.948 382.156 Q227.485 382.26 226.999 382.48 L226.999 378.14 Z" fill="#000000" fill-rule="evenodd" fill-opacity="1"></path><path clip-path="url(#clip770)" d="M 0 0 M281.91 385.796 L283.82 385.796 L283.82 379.205 L281.742 379.621 L281.742 378.557 L283.808 378.14 L284.977 378.14 L284.977 385.796 L286.887 385.796 L286.887 386.78 L281.91 386.78 L281.91 385.796 Z" fill="#000000" fill-rule="evenodd" fill-opacity="1"></path><path clip-path="url(#clip770)" d="M 0 0 M288.154 385.31 L289.375 385.31 L289.375 386.78 L288.154 386.78 L288.154 385.31 Z" fill="#000000" fill-rule="evenodd" fill-opacity="1"></path><path clip-path="url(#clip770)" d="M 0 0 M293.142 378.91 Q292.24 378.91 291.782 379.801 Q291.331 380.686 291.331 382.469 Q291.331 384.245 291.782 385.136 Q292.24 386.022 293.142 386.022 Q294.051 386.022 294.502 385.136 Q294.96 384.245 294.96 382.469 Q294.96 380.686 294.502 379.801 Q294.051 378.91 293.142 378.91 M293.142 377.984 Q294.595 377.984 295.359 379.135 Q296.129 380.281 296.129 382.469 Q296.129 384.65 295.359 385.802 Q294.595 386.948 293.142 386.948 Q291.69 386.948 290.92 385.802 Q290.156 384.65 290.156 382.469 Q290.156 380.281 290.92 379.135 Q291.69 377.984 293.142 377.984 Z" fill="#000000" fill-rule="evenodd" fill-opacity="1"></path><path clip-path="url(#clip770)" d="M 0 0 M297.407 378.14 L301.997 378.14 L301.997 379.124 L298.478 379.124 L298.478 381.242 Q298.733 381.155 298.987 381.114 Q299.242 381.068 299.497 381.068 Q300.943 381.068 301.788 381.861 Q302.633 382.654 302.633 384.008 Q302.633 385.403 301.765 386.178 Q300.897 386.948 299.317 386.948 Q298.773 386.948 298.206 386.855 Q297.645 386.763 297.043 386.577 L297.043 385.403 Q297.564 385.686 298.119 385.825 Q298.675 385.964 299.294 385.964 Q300.295 385.964 300.88 385.437 Q301.464 384.911 301.464 384.008 Q301.464 383.105 300.88 382.579 Q300.295 382.052 299.294 382.052 Q298.825 382.052 298.357 382.156 Q297.894 382.26 297.407 382.48 L297.407 378.14 Z" fill="#000000" fill-rule="evenodd" fill-opacity="1"></path><path clip-path="url(#clip770)" d="M 0 0 M306.4 378.91 Q305.498 378.91 305.041 379.801 Q304.589 380.686 304.589 382.469 Q304.589 384.245 305.041 385.136 Q305.498 386.022 306.4 386.022 Q307.309 386.022 307.76 385.136 Q308.218 384.245 308.218 382.469 Q308.218 380.686 307.76 379.801 Q307.309 378.91 306.4 378.91 M306.4 377.984 Q307.853 377.984 308.617 379.135 Q309.387 380.281 309.387 382.469 Q309.387 384.65 308.617 385.802 Q307.853 386.948 306.4 386.948 Q304.948 386.948 304.178 385.802 Q303.414 384.65 303.414 382.469 Q303.414 380.281 304.178 379.135 Q304.948 377.984 306.4 377.984 Z" fill="#000000" fill-rule="evenodd" fill-opacity="1"></path><path clip-path="url(#clip770)" d="M 0 0 M359.257 385.796 L361.167 385.796 L361.167 379.205 L359.09 379.621 L359.09 378.557 L361.156 378.14 L362.325 378.14 L362.325 385.796 L364.234 385.796 L364.234 386.78 L359.257 386.78 L359.257 385.796 Z" fill="#000000" fill-rule="evenodd" fill-opacity="1"></path><path clip-path="url(#clip770)" d="M 0 0 M365.502 385.31 L366.723 385.31 L366.723 386.78 L365.502 386.78 L365.502 385.31 Z" fill="#000000" fill-rule="evenodd" fill-opacity="1"></path><path clip-path="url(#clip770)" d="M 0 0 M370.49 378.91 Q369.587 378.91 369.13 379.801 Q368.679 380.686 368.679 382.469 Q368.679 384.245 369.13 385.136 Q369.587 386.022 370.49 386.022 Q371.399 386.022 371.85 385.136 Q372.307 384.245 372.307 382.469 Q372.307 380.686 371.85 379.801 Q371.399 378.91 370.49 378.91 M370.49 377.984 Q371.943 377.984 372.706 379.135 Q373.476 380.281 373.476 382.469 Q373.476 384.65 372.706 385.802 Q371.943 386.948 370.49 386.948 Q369.037 386.948 368.268 385.802 Q367.504 384.65 367.504 382.469 Q367.504 380.281 368.268 379.135 Q369.037 377.984 370.49 377.984 Z" fill="#000000" fill-rule="evenodd" fill-opacity="1"></path><path clip-path="url(#clip770)" d="M 0 0 M374.755 378.14 L379.344 378.14 L379.344 379.124 L375.826 379.124 L375.826 381.242 Q376.08 381.155 376.335 381.114 Q376.589 381.068 376.844 381.068 Q378.291 381.068 379.136 381.861 Q379.981 382.654 379.981 384.008 Q379.981 385.403 379.113 386.178 Q378.245 386.948 376.665 386.948 Q376.121 386.948 375.554 386.855 Q374.992 386.763 374.39 386.577 L374.39 385.403 Q374.911 385.686 375.467 385.825 Q376.022 385.964 376.642 385.964 Q377.643 385.964 378.227 385.437 Q378.812 384.911 378.812 384.008 Q378.812 383.105 378.227 382.579 Q377.643 382.052 376.642 382.052 Q376.173 382.052 375.704 382.156 Q375.241 382.26 374.755 382.48 L374.755 378.14 Z" fill="#000000" fill-rule="evenodd" fill-opacity="1"></path><path clip-path="url(#clip770)" d="M 0 0 M381.26 378.14 L385.849 378.14 L385.849 379.124 L382.33 379.124 L382.33 381.242 Q382.585 381.155 382.839 381.114 Q383.094 381.068 383.349 381.068 Q384.795 381.068 385.64 381.861 Q386.485 382.654 386.485 384.008 Q386.485 385.403 385.617 386.178 Q384.749 386.948 383.169 386.948 Q382.625 386.948 382.058 386.855 Q381.497 386.763 380.895 386.577 L380.895 385.403 Q381.416 385.686 381.971 385.825 Q382.527 385.964 383.146 385.964 Q384.147 385.964 384.732 385.437 Q385.316 384.911 385.316 384.008 Q385.316 383.105 384.732 382.579 Q384.147 382.052 383.146 382.052 Q382.677 382.052 382.209 382.156 Q381.746 382.26 381.26 382.48 L381.26 378.14 Z" fill="#000000" fill-rule="evenodd" fill-opacity="1"></path><path clip-path="url(#clip770)" d="M 0 0 M436.211 385.796 L438.121 385.796 L438.121 379.205 L436.044 379.621 L436.044 378.557 L438.11 378.14 L439.279 378.14 L439.279 385.796 L441.188 385.796 L441.188 386.78 L436.211 386.78 L436.211 385.796 Z" fill="#000000" fill-rule="evenodd" fill-opacity="1"></path><path clip-path="url(#clip770)" d="M 0 0 M442.456 385.31 L443.677 385.31 L443.677 386.78 L442.456 386.78 L442.456 385.31 Z" fill="#000000" fill-rule="evenodd" fill-opacity="1"></path><path clip-path="url(#clip770)" d="M 0 0 M447.444 378.91 Q446.541 378.91 446.084 379.801 Q445.633 380.686 445.633 382.469 Q445.633 384.245 446.084 385.136 Q446.541 386.022 447.444 386.022 Q448.353 386.022 448.804 385.136 Q449.261 384.245 449.261 382.469 Q449.261 380.686 448.804 379.801 Q448.353 378.91 447.444 378.91 M447.444 377.984 Q448.897 377.984 449.66 379.135 Q450.43 380.281 450.43 382.469 Q450.43 384.65 449.66 385.802 Q448.897 386.948 447.444 386.948 Q445.991 386.948 445.222 385.802 Q444.458 384.65 444.458 382.469 Q444.458 380.281 445.222 379.135 Q445.991 377.984 447.444 377.984 Z" fill="#000000" fill-rule="evenodd" fill-opacity="1"></path><path clip-path="url(#clip770)" d="M 0 0 M454.342 381.994 Q453.555 381.994 453.092 382.532 Q452.635 383.07 452.635 384.008 Q452.635 384.94 453.092 385.484 Q453.555 386.022 454.342 386.022 Q455.129 386.022 455.586 385.484 Q456.049 384.94 456.049 384.008 Q456.049 383.07 455.586 382.532 Q455.129 381.994 454.342 381.994 M456.663 378.331 L456.663 379.396 Q456.223 379.187 455.772 379.077 Q455.326 378.968 454.886 378.968 Q453.729 378.968 453.115 379.749 Q452.508 380.53 452.421 382.11 Q452.762 381.606 453.277 381.34 Q453.792 381.068 454.412 381.068 Q455.714 381.068 456.466 381.861 Q457.224 382.648 457.224 384.008 Q457.224 385.339 456.437 386.143 Q455.65 386.948 454.342 386.948 Q452.843 386.948 452.05 385.802 Q451.258 384.65 451.258 382.469 Q451.258 380.42 452.23 379.205 Q453.202 377.984 454.84 377.984 Q455.28 377.984 455.725 378.071 Q456.177 378.157 456.663 378.331 Z" fill="#000000" fill-rule="evenodd" fill-opacity="1"></path><path clip-path="url(#clip770)" d="M 0 0 M460.991 378.91 Q460.089 378.91 459.631 379.801 Q459.18 380.686 459.18 382.469 Q459.18 384.245 459.631 385.136 Q460.089 386.022 460.991 386.022 Q461.9 386.022 462.351 385.136 Q462.809 384.245 462.809 382.469 Q462.809 380.686 462.351 379.801 Q461.9 378.91 460.991 378.91 M460.991 377.984 Q462.444 377.984 463.208 379.135 Q463.977 380.281 463.977 382.469 Q463.977 384.65 463.208 385.802 Q462.444 386.948 460.991 386.948 Q459.539 386.948 458.769 385.802 Q458.005 384.65 458.005 382.469 Q458.005 380.281 458.769 379.135 Q459.539 377.984 460.991 377.984 Z" fill="#000000" fill-rule="evenodd" fill-opacity="1"></path><path clip-path="url(#clip770)" d="M 0 0 M513.559 385.796 L515.469 385.796 L515.469 379.205 L513.391 379.621 L513.391 378.557 L515.457 378.14 L516.626 378.14 L516.626 385.796 L518.536 385.796 L518.536 386.78 L513.559 386.78 L513.559 385.796 Z" fill="#000000" fill-rule="evenodd" fill-opacity="1"></path><path clip-path="url(#clip770)" d="M 0 0 M519.803 385.31 L521.024 385.31 L521.024 386.78 L519.803 386.78 L519.803 385.31 Z" fill="#000000" fill-rule="evenodd" fill-opacity="1"></path><path clip-path="url(#clip770)" d="M 0 0 M524.792 378.91 Q523.889 378.91 523.432 379.801 Q522.98 380.686 522.98 382.469 Q522.98 384.245 523.432 385.136 Q523.889 386.022 524.792 386.022 Q525.7 386.022 526.152 385.136 Q526.609 384.245 526.609 382.469 Q526.609 380.686 526.152 379.801 Q525.7 378.91 524.792 378.91 M524.792 377.984 Q526.244 377.984 527.008 379.135 Q527.778 380.281 527.778 382.469 Q527.778 384.65 527.008 385.802 Q526.244 386.948 524.792 386.948 Q523.339 386.948 522.569 385.802 Q521.805 384.65 521.805 382.469 Q521.805 380.281 522.569 379.135 Q523.339 377.984 524.792 377.984 Z" fill="#000000" fill-rule="evenodd" fill-opacity="1"></path><path clip-path="url(#clip770)" d="M 0 0 M531.69 381.994 Q530.903 381.994 530.44 382.532 Q529.983 383.07 529.983 384.008 Q529.983 384.94 530.44 385.484 Q530.903 386.022 531.69 386.022 Q532.477 386.022 532.934 385.484 Q533.397 384.94 533.397 384.008 Q533.397 383.07 532.934 382.532 Q532.477 381.994 531.69 381.994 M534.01 378.331 L534.01 379.396 Q533.57 379.187 533.119 379.077 Q532.673 378.968 532.234 378.968 Q531.076 378.968 530.463 379.749 Q529.855 380.53 529.768 382.11 Q530.11 381.606 530.625 381.34 Q531.14 381.068 531.759 381.068 Q533.061 381.068 533.813 381.861 Q534.572 382.648 534.572 384.008 Q534.572 385.339 533.785 386.143 Q532.998 386.948 531.69 386.948 Q530.191 386.948 529.398 385.802 Q528.605 384.65 528.605 382.469 Q528.605 380.42 529.577 379.205 Q530.55 377.984 532.187 377.984 Q532.627 377.984 533.073 378.071 Q533.524 378.157 534.01 378.331 Z" fill="#000000" fill-rule="evenodd" fill-opacity="1"></path><path clip-path="url(#clip770)" d="M 0 0 M535.851 378.14 L540.44 378.14 L540.44 379.124 L536.921 379.124 L536.921 381.242 Q537.176 381.155 537.43 381.114 Q537.685 381.068 537.94 381.068 Q539.386 381.068 540.231 381.861 Q541.076 382.654 541.076 384.008 Q541.076 385.403 540.208 386.178 Q539.34 386.948 537.76 386.948 Q537.216 386.948 536.649 386.855 Q536.088 386.763 535.486 386.577 L535.486 385.403 Q536.007 385.686 536.562 385.825 Q537.118 385.964 537.737 385.964 Q538.738 385.964 539.323 385.437 Q539.907 384.911 539.907 384.008 Q539.907 383.105 539.323 382.579 Q538.738 382.052 537.737 382.052 Q537.268 382.052 536.8 382.156 Q536.337 382.26 535.851 382.48 L535.851 378.14 Z" fill="#000000" fill-rule="evenodd" fill-opacity="1"></path><polyline clip-path="url(#clip772)" style="stroke:#000000; stroke-width:0.5; stroke-opacity:0.1; fill:none" points="
  41.5512,361.429 588.189,361.429 
  "></polyline>
<polyline clip-path="url(#clip772)" style="stroke:#000000; stroke-width:0.5; stroke-opacity:0.1; fill:none" points="
  41.5512,304.285 588.189,304.285 
  "></polyline>
<polyline clip-path="url(#clip772)" style="stroke:#000000; stroke-width:0.5; stroke-opacity:0.1; fill:none" points="
  41.5512,247.141 588.189,247.141 
  "></polyline>
<polyline clip-path="url(#clip772)" style="stroke:#000000; stroke-width:0.5; stroke-opacity:0.1; fill:none" points="
  41.5512,189.997 588.189,189.997 
  "></polyline>
<polyline clip-path="url(#clip772)" style="stroke:#000000; stroke-width:0.5; stroke-opacity:0.1; fill:none" points="
  41.5512,132.853 588.189,132.853 
  "></polyline>
<polyline clip-path="url(#clip772)" style="stroke:#000000; stroke-width:0.5; stroke-opacity:0.1; fill:none" points="
  41.5512,75.7093 588.189,75.7093 
  "></polyline>
<polyline clip-path="url(#clip772)" style="stroke:#000000; stroke-width:0.5; stroke-opacity:0.1; fill:none" points="
  41.5512,18.5654 588.189,18.5654 
  "></polyline>
<polyline clip-path="url(#clip770)" style="stroke:#000000; stroke-width:1; stroke-opacity:1; fill:none" points="
  41.5512,371.612 41.5512,11.811 
  "></polyline>
<polyline clip-path="url(#clip770)" style="stroke:#000000; stroke-width:1; stroke-opacity:1; fill:none" points="
  41.5512,361.429 48.1108,361.429 
  "></polyline>
<polyline clip-path="url(#clip770)" style="stroke:#000000; stroke-width:1; stroke-opacity:1; fill:none" points="
  41.5512,304.285 48.1108,304.285 
  "></polyline>
<polyline clip-path="url(#clip770)" style="stroke:#000000; stroke-width:1; stroke-opacity:1; fill:none" points="
  41.5512,247.141 48.1108,247.141 
  "></polyline>
<polyline clip-path="url(#clip770)" style="stroke:#000000; stroke-width:1; stroke-opacity:1; fill:none" points="
  41.5512,189.997 48.1108,189.997 
  "></polyline>
<polyline clip-path="url(#clip770)" style="stroke:#000000; stroke-width:1; stroke-opacity:1; fill:none" points="
  41.5512,132.853 48.1108,132.853 
  "></polyline>
<polyline clip-path="url(#clip770)" style="stroke:#000000; stroke-width:1; stroke-opacity:1; fill:none" points="
  41.5512,75.7093 48.1108,75.7093 
  "></polyline>
<polyline clip-path="url(#clip770)" style="stroke:#000000; stroke-width:1; stroke-opacity:1; fill:none" points="
  41.5512,18.5654 48.1108,18.5654 
  "></polyline>
<path clip-path="url(#clip770)" d="M 0 0 M29.5651 357.879 Q28.6623 357.879 28.2051 358.77 Q27.7537 359.655 27.7537 361.438 Q27.7537 363.214 28.2051 364.105 Q28.6623 364.991 29.5651 364.991 Q30.4736 364.991 30.925 364.105 Q31.3822 363.214 31.3822 361.438 Q31.3822 359.655 30.925 358.77 Q30.4736 357.879 29.5651 357.879 M29.5651 356.953 Q31.0176 356.953 31.7815 358.104 Q32.5512 359.25 32.5512 361.438 Q32.5512 363.619 31.7815 364.771 Q31.0176 365.917 29.5651 365.917 Q28.1125 365.917 27.3429 364.771 Q26.579 363.619 26.579 361.438 Q26.579 359.25 27.3429 358.104 Q28.1125 356.953 29.5651 356.953 Z" fill="#000000" fill-rule="evenodd" fill-opacity="1"></path><path clip-path="url(#clip770)" d="M 0 0 M14.0675 307.621 L15.9772 307.621 L15.9772 301.03 L13.8996 301.446 L13.8996 300.382 L15.9656 299.965 L17.1346 299.965 L17.1346 307.621 L19.0443 307.621 L19.0443 308.605 L14.0675 308.605 L14.0675 307.621 Z" fill="#000000" fill-rule="evenodd" fill-opacity="1"></path><path clip-path="url(#clip770)" d="M 0 0 M22.8116 300.735 Q21.9089 300.735 21.4517 301.626 Q21.0003 302.511 21.0003 304.294 Q21.0003 306.07 21.4517 306.961 Q21.9089 307.847 22.8116 307.847 Q23.7202 307.847 24.1716 306.961 Q24.6288 306.07 24.6288 304.294 Q24.6288 302.511 24.1716 301.626 Q23.7202 300.735 22.8116 300.735 M22.8116 299.809 Q24.2642 299.809 25.0281 300.96 Q25.7977 302.106 25.7977 304.294 Q25.7977 306.475 25.0281 307.627 Q24.2642 308.773 22.8116 308.773 Q21.3591 308.773 20.5894 307.627 Q19.8255 306.475 19.8255 304.294 Q19.8255 302.106 20.5894 300.96 Q21.3591 299.809 22.8116 299.809 Z" fill="#000000" fill-rule="evenodd" fill-opacity="1"></path><path clip-path="url(#clip770)" d="M 0 0 M29.5651 300.735 Q28.6623 300.735 28.2051 301.626 Q27.7537 302.511 27.7537 304.294 Q27.7537 306.07 28.2051 306.961 Q28.6623 307.847 29.5651 307.847 Q30.4736 307.847 30.925 306.961 Q31.3822 306.07 31.3822 304.294 Q31.3822 302.511 30.925 301.626 Q30.4736 300.735 29.5651 300.735 M29.5651 299.809 Q31.0176 299.809 31.7815 300.96 Q32.5512 302.106 32.5512 304.294 Q32.5512 306.475 31.7815 307.627 Q31.0176 308.773 29.5651 308.773 Q28.1125 308.773 27.3429 307.627 Q26.579 306.475 26.579 304.294 Q26.579 302.106 27.3429 300.96 Q28.1125 299.809 29.5651 299.809 Z" fill="#000000" fill-rule="evenodd" fill-opacity="1"></path><path clip-path="url(#clip770)" d="M 0 0 M14.9645 250.477 L19.0443 250.477 L19.0443 251.461 L13.5582 251.461 L13.5582 250.477 Q14.2237 249.789 15.3695 248.631 Q16.5212 247.468 16.8163 247.132 Q17.3776 246.502 17.5975 246.068 Q17.8232 245.628 17.8232 245.205 Q17.8232 244.517 17.3371 244.083 Q16.8568 243.649 16.0813 243.649 Q15.5316 243.649 14.9182 243.84 Q14.3105 244.031 13.6161 244.418 L13.6161 243.238 Q14.3221 242.954 14.9355 242.81 Q15.5489 242.665 16.0582 242.665 Q17.4008 242.665 18.1994 243.336 Q18.998 244.007 18.998 245.13 Q18.998 245.663 18.7955 246.143 Q18.5987 246.617 18.0721 247.266 Q17.9274 247.433 17.1519 248.238 Q16.3765 249.036 14.9645 250.477 Z" fill="#000000" fill-rule="evenodd" fill-opacity="1"></path><path clip-path="url(#clip770)" d="M 0 0 M22.8116 243.591 Q21.9089 243.591 21.4517 244.482 Q21.0003 245.367 21.0003 247.15 Q21.0003 248.926 21.4517 249.818 Q21.9089 250.703 22.8116 250.703 Q23.7202 250.703 24.1716 249.818 Q24.6288 248.926 24.6288 247.15 Q24.6288 245.367 24.1716 244.482 Q23.7202 243.591 22.8116 243.591 M22.8116 242.665 Q24.2642 242.665 25.0281 243.816 Q25.7977 244.962 25.7977 247.15 Q25.7977 249.331 25.0281 250.483 Q24.2642 251.629 22.8116 251.629 Q21.3591 251.629 20.5894 250.483 Q19.8255 249.331 19.8255 247.15 Q19.8255 244.962 20.5894 243.816 Q21.3591 242.665 22.8116 242.665 Z" fill="#000000" fill-rule="evenodd" fill-opacity="1"></path><path clip-path="url(#clip770)" d="M 0 0 M29.5651 243.591 Q28.6623 243.591 28.2051 244.482 Q27.7537 245.367 27.7537 247.15 Q27.7537 248.926 28.2051 249.818 Q28.6623 250.703 29.5651 250.703 Q30.4736 250.703 30.925 249.818 Q31.3822 248.926 31.3822 247.15 Q31.3822 245.367 30.925 244.482 Q30.4736 243.591 29.5651 243.591 M29.5651 242.665 Q31.0176 242.665 31.7815 243.816 Q32.5512 244.962 32.5512 247.15 Q32.5512 249.331 31.7815 250.483 Q31.0176 251.629 29.5651 251.629 Q28.1125 251.629 27.3429 250.483 Q26.579 249.331 26.579 247.15 Q26.579 244.962 27.3429 243.816 Q28.1125 242.665 29.5651 242.665 Z" fill="#000000" fill-rule="evenodd" fill-opacity="1"></path><path clip-path="url(#clip770)" d="M 0 0 M17.2619 189.659 Q18.101 189.838 18.5698 190.405 Q19.0443 190.972 19.0443 191.806 Q19.0443 193.085 18.1647 193.785 Q17.285 194.485 15.6647 194.485 Q15.1207 194.485 14.542 194.375 Q13.9691 194.271 13.3557 194.057 L13.3557 192.928 Q13.8418 193.212 14.4205 193.357 Q14.9992 193.501 15.63 193.501 Q16.7295 193.501 17.3024 193.067 Q17.8811 192.633 17.8811 191.806 Q17.8811 191.042 17.3429 190.613 Q16.8105 190.179 15.8557 190.179 L14.8487 190.179 L14.8487 189.219 L15.9019 189.219 Q16.7642 189.219 17.2214 188.877 Q17.6786 188.53 17.6786 187.882 Q17.6786 187.217 17.204 186.864 Q16.7353 186.505 15.8557 186.505 Q15.3753 186.505 14.8256 186.609 Q14.2758 186.713 13.6161 186.933 L13.6161 185.891 Q14.2816 185.706 14.8603 185.614 Q15.4448 185.521 15.9598 185.521 Q17.2908 185.521 18.0663 186.129 Q18.8417 186.73 18.8417 187.761 Q18.8417 188.478 18.4309 188.976 Q18.02 189.468 17.2619 189.659 Z" fill="#000000" fill-rule="evenodd" fill-opacity="1"></path><path clip-path="url(#clip770)" d="M 0 0 M22.8116 186.447 Q21.9089 186.447 21.4517 187.338 Q21.0003 188.223 21.0003 190.006 Q21.0003 191.782 21.4517 192.674 Q21.9089 193.559 22.8116 193.559 Q23.7202 193.559 24.1716 192.674 Q24.6288 191.782 24.6288 190.006 Q24.6288 188.223 24.1716 187.338 Q23.7202 186.447 22.8116 186.447 M22.8116 185.521 Q24.2642 185.521 25.0281 186.673 Q25.7977 187.818 25.7977 190.006 Q25.7977 192.188 25.0281 193.339 Q24.2642 194.485 22.8116 194.485 Q21.3591 194.485 20.5894 193.339 Q19.8255 192.188 19.8255 190.006 Q19.8255 187.818 20.5894 186.673 Q21.3591 185.521 22.8116 185.521 Z" fill="#000000" fill-rule="evenodd" fill-opacity="1"></path><path clip-path="url(#clip770)" d="M 0 0 M29.5651 186.447 Q28.6623 186.447 28.2051 187.338 Q27.7537 188.223 27.7537 190.006 Q27.7537 191.782 28.2051 192.674 Q28.6623 193.559 29.5651 193.559 Q30.4736 193.559 30.925 192.674 Q31.3822 191.782 31.3822 190.006 Q31.3822 188.223 30.925 187.338 Q30.4736 186.447 29.5651 186.447 M29.5651 185.521 Q31.0176 185.521 31.7815 186.673 Q32.5512 187.818 32.5512 190.006 Q32.5512 192.188 31.7815 193.339 Q31.0176 194.485 29.5651 194.485 Q28.1125 194.485 27.3429 193.339 Q26.579 192.188 26.579 190.006 Q26.579 187.818 27.3429 186.673 Q28.1125 185.521 29.5651 185.521 Z" fill="#000000" fill-rule="evenodd" fill-opacity="1"></path><path clip-path="url(#clip770)" d="M 0 0 M16.6485 129.552 L13.6971 134.164 L16.6485 134.164 L16.6485 129.552 M16.3418 128.533 L17.8117 128.533 L17.8117 134.164 L19.0443 134.164 L19.0443 135.136 L17.8117 135.136 L17.8117 137.173 L16.6485 137.173 L16.6485 135.136 L12.748 135.136 L12.748 134.008 L16.3418 128.533 Z" fill="#000000" fill-rule="evenodd" fill-opacity="1"></path><path clip-path="url(#clip770)" d="M 0 0 M22.8116 129.303 Q21.9089 129.303 21.4517 130.194 Q21.0003 131.08 21.0003 132.862 Q21.0003 134.639 21.4517 135.53 Q21.9089 136.415 22.8116 136.415 Q23.7202 136.415 24.1716 135.53 Q24.6288 134.639 24.6288 132.862 Q24.6288 131.08 24.1716 130.194 Q23.7202 129.303 22.8116 129.303 M22.8116 128.377 Q24.2642 128.377 25.0281 129.529 Q25.7977 130.674 25.7977 132.862 Q25.7977 135.044 25.0281 136.195 Q24.2642 137.341 22.8116 137.341 Q21.3591 137.341 20.5894 136.195 Q19.8255 135.044 19.8255 132.862 Q19.8255 130.674 20.5894 129.529 Q21.3591 128.377 22.8116 128.377 Z" fill="#000000" fill-rule="evenodd" fill-opacity="1"></path><path clip-path="url(#clip770)" d="M 0 0 M29.5651 129.303 Q28.6623 129.303 28.2051 130.194 Q27.7537 131.08 27.7537 132.862 Q27.7537 134.639 28.2051 135.53 Q28.6623 136.415 29.5651 136.415 Q30.4736 136.415 30.925 135.53 Q31.3822 134.639 31.3822 132.862 Q31.3822 131.08 30.925 130.194 Q30.4736 129.303 29.5651 129.303 M29.5651 128.377 Q31.0176 128.377 31.7815 129.529 Q32.5512 130.674 32.5512 132.862 Q32.5512 135.044 31.7815 136.195 Q31.0176 137.341 29.5651 137.341 Q28.1125 137.341 27.3429 136.195 Q26.579 135.044 26.579 132.862 Q26.579 130.674 27.3429 129.529 Q28.1125 128.377 29.5651 128.377 Z" fill="#000000" fill-rule="evenodd" fill-opacity="1"></path><path clip-path="url(#clip770)" d="M 0 0 M13.8186 71.3893 L18.4077 71.3893 L18.4077 72.3731 L14.8892 72.3731 L14.8892 74.4912 Q15.1439 74.4044 15.3985 74.3639 Q15.6531 74.3176 15.9077 74.3176 Q17.3545 74.3176 18.1994 75.1104 Q19.0443 75.9032 19.0443 77.2574 Q19.0443 78.652 18.1762 79.4275 Q17.3082 80.1972 15.7283 80.1972 Q15.1844 80.1972 14.6172 80.1046 Q14.0559 80.012 13.454 79.8268 L13.454 78.652 Q13.9749 78.9356 14.5304 79.0745 Q15.086 79.2134 15.7052 79.2134 Q16.7063 79.2134 17.2908 78.6868 Q17.8753 78.1601 17.8753 77.2574 Q17.8753 76.3546 17.2908 75.828 Q16.7063 75.3014 15.7052 75.3014 Q15.2364 75.3014 14.7677 75.4055 Q14.3047 75.5097 13.8186 75.7296 L13.8186 71.3893 Z" fill="#000000" fill-rule="evenodd" fill-opacity="1"></path><path clip-path="url(#clip770)" d="M 0 0 M22.8116 72.159 Q21.9089 72.159 21.4517 73.0502 Q21.0003 73.9356 21.0003 75.718 Q21.0003 77.4946 21.4517 78.3858 Q21.9089 79.2713 22.8116 79.2713 Q23.7202 79.2713 24.1716 78.3858 Q24.6288 77.4946 24.6288 75.718 Q24.6288 73.9356 24.1716 73.0502 Q23.7202 72.159 22.8116 72.159 M22.8116 71.2331 Q24.2642 71.2331 25.0281 72.3847 Q25.7977 73.5305 25.7977 75.718 Q25.7977 77.8997 25.0281 79.0513 Q24.2642 80.1972 22.8116 80.1972 Q21.3591 80.1972 20.5894 79.0513 Q19.8255 77.8997 19.8255 75.718 Q19.8255 73.5305 20.5894 72.3847 Q21.3591 71.2331 22.8116 71.2331 Z" fill="#000000" fill-rule="evenodd" fill-opacity="1"></path><path clip-path="url(#clip770)" d="M 0 0 M29.5651 72.159 Q28.6623 72.159 28.2051 73.0502 Q27.7537 73.9356 27.7537 75.718 Q27.7537 77.4946 28.2051 78.3858 Q28.6623 79.2713 29.5651 79.2713 Q30.4736 79.2713 30.925 78.3858 Q31.3822 77.4946 31.3822 75.718 Q31.3822 73.9356 30.925 73.0502 Q30.4736 72.159 29.5651 72.159 M29.5651 71.2331 Q31.0176 71.2331 31.7815 72.3847 Q32.5512 73.5305 32.5512 75.718 Q32.5512 77.8997 31.7815 79.0513 Q31.0176 80.1972 29.5651 80.1972 Q28.1125 80.1972 27.3429 79.0513 Q26.579 77.8997 26.579 75.718 Q26.579 73.5305 27.3429 72.3847 Q28.1125 71.2331 29.5651 71.2331 Z" fill="#000000" fill-rule="evenodd" fill-opacity="1"></path><path clip-path="url(#clip770)" d="M 0 0 M16.1624 18.0996 Q15.3753 18.0996 14.9124 18.6378 Q14.4552 19.176 14.4552 20.1135 Q14.4552 21.0452 14.9124 21.5891 Q15.3753 22.1273 16.1624 22.1273 Q16.9494 22.1273 17.4066 21.5891 Q17.8695 21.0452 17.8695 20.1135 Q17.8695 19.176 17.4066 18.6378 Q16.9494 18.0996 16.1624 18.0996 M18.483 14.4364 L18.483 15.5012 Q18.0431 15.2929 17.5918 15.1829 Q17.1462 15.073 16.7063 15.073 Q15.5489 15.073 14.9355 15.8542 Q14.3279 16.6355 14.2411 18.2153 Q14.5825 17.7119 15.0976 17.4456 Q15.6126 17.1737 16.2318 17.1737 Q17.5339 17.1737 18.2862 17.9665 Q19.0443 18.7535 19.0443 20.1135 Q19.0443 21.4445 18.2573 22.2489 Q17.4702 23.0533 16.1624 23.0533 Q14.6635 23.0533 13.8707 21.9074 Q13.0779 20.7558 13.0779 18.5741 Q13.0779 16.5255 14.0501 15.3102 Q15.0223 14.0892 16.66 14.0892 Q17.0999 14.0892 17.5455 14.176 Q17.9968 14.2628 18.483 14.4364 Z" fill="#000000" fill-rule="evenodd" fill-opacity="1"></path><path clip-path="url(#clip770)" d="M 0 0 M22.8116 15.0151 Q21.9089 15.0151 21.4517 15.9063 Q21.0003 16.7917 21.0003 18.5741 Q21.0003 20.3507 21.4517 21.2419 Q21.9089 22.1273 22.8116 22.1273 Q23.7202 22.1273 24.1716 21.2419 Q24.6288 20.3507 24.6288 18.5741 Q24.6288 16.7917 24.1716 15.9063 Q23.7202 15.0151 22.8116 15.0151 M22.8116 14.0892 Q24.2642 14.0892 25.0281 15.2408 Q25.7977 16.3866 25.7977 18.5741 Q25.7977 20.7558 25.0281 21.9074 Q24.2642 23.0533 22.8116 23.0533 Q21.3591 23.0533 20.5894 21.9074 Q19.8255 20.7558 19.8255 18.5741 Q19.8255 16.3866 20.5894 15.2408 Q21.3591 14.0892 22.8116 14.0892 Z" fill="#000000" fill-rule="evenodd" fill-opacity="1"></path><path clip-path="url(#clip770)" d="M 0 0 M29.5651 15.0151 Q28.6623 15.0151 28.2051 15.9063 Q27.7537 16.7917 27.7537 18.5741 Q27.7537 20.3507 28.2051 21.2419 Q28.6623 22.1273 29.5651 22.1273 Q30.4736 22.1273 30.925 21.2419 Q31.3822 20.3507 31.3822 18.5741 Q31.3822 16.7917 30.925 15.9063 Q30.4736 15.0151 29.5651 15.0151 M29.5651 14.0892 Q31.0176 14.0892 31.7815 15.2408 Q32.5512 16.3866 32.5512 18.5741 Q32.5512 20.7558 31.7815 21.9074 Q31.0176 23.0533 29.5651 23.0533 Q28.1125 23.0533 27.3429 21.9074 Q26.579 20.7558 26.579 18.5741 Q26.579 16.3866 27.3429 15.2408 Q28.1125 14.0892 29.5651 14.0892 Z" fill="#000000" fill-rule="evenodd" fill-opacity="1"></path><path clip-path="url(#clip772)" d="
M71.6172 359.143 L71.6172 361.429 L79.3395 361.429 L79.3395 359.143 L71.6172 359.143 L71.6172 359.143  Z
  " fill="#009af9" fill-rule="evenodd" fill-opacity="1"></path>
<polyline clip-path="url(#clip772)" style="stroke:#000000; stroke-width:1; stroke-opacity:1; fill:none" points="
  71.6172,359.143 71.6172,361.429 79.3395,361.429 79.3395,359.143 71.6172,359.143 
  "></polyline>
<path clip-path="url(#clip772)" d="
M79.3395 353.429 L79.3395 361.429 L87.0618 361.429 L87.0618 353.429 L79.3395 353.429 L79.3395 353.429  Z
  " fill="#009af9" fill-rule="evenodd" fill-opacity="1"></path>
<polyline clip-path="url(#clip772)" style="stroke:#000000; stroke-width:1; stroke-opacity:1; fill:none" points="
  79.3395,353.429 79.3395,361.429 87.0618,361.429 87.0618,353.429 79.3395,353.429 
  "></polyline>
<path clip-path="url(#clip772)" d="
M87.0618 340.857 L87.0618 361.429 L94.7842 361.429 L94.7842 340.857 L87.0618 340.857 L87.0618 340.857  Z
  " fill="#009af9" fill-rule="evenodd" fill-opacity="1"></path>
<polyline clip-path="url(#clip772)" style="stroke:#000000; stroke-width:1; stroke-opacity:1; fill:none" points="
  87.0618,340.857 87.0618,361.429 94.7842,361.429 94.7842,340.857 87.0618,340.857 
  "></polyline>
<path clip-path="url(#clip772)" d="
M94.7842 318 L94.7842 361.429 L102.506 361.429 L102.506 318 L94.7842 318 L94.7842 318  Z
  " fill="#009af9" fill-rule="evenodd" fill-opacity="1"></path>
<polyline clip-path="url(#clip772)" style="stroke:#000000; stroke-width:1; stroke-opacity:1; fill:none" points="
  94.7842,318 94.7842,361.429 102.506,361.429 102.506,318 94.7842,318 
  "></polyline>
<path clip-path="url(#clip772)" d="
M102.506 299.142 L102.506 361.429 L110.229 361.429 L110.229 299.142 L102.506 299.142 L102.506 299.142  Z
  " fill="#009af9" fill-rule="evenodd" fill-opacity="1"></path>
<polyline clip-path="url(#clip772)" style="stroke:#000000; stroke-width:1; stroke-opacity:1; fill:none" points="
  102.506,299.142 102.506,361.429 110.229,361.429 110.229,299.142 102.506,299.142 
  "></polyline>
<path clip-path="url(#clip772)" d="
M110.229 264.856 L110.229 361.429 L117.951 361.429 L117.951 264.856 L110.229 264.856 L110.229 264.856  Z
  " fill="#009af9" fill-rule="evenodd" fill-opacity="1"></path>
<polyline clip-path="url(#clip772)" style="stroke:#000000; stroke-width:1; stroke-opacity:1; fill:none" points="
  110.229,264.856 110.229,361.429 117.951,361.429 117.951,264.856 110.229,264.856 
  "></polyline>
<path clip-path="url(#clip772)" d="
M117.951 235.712 L117.951 361.429 L125.673 361.429 L125.673 235.712 L117.951 235.712 L117.951 235.712  Z
  " fill="#009af9" fill-rule="evenodd" fill-opacity="1"></path>
<polyline clip-path="url(#clip772)" style="stroke:#000000; stroke-width:1; stroke-opacity:1; fill:none" points="
  117.951,235.712 117.951,361.429 125.673,361.429 125.673,235.712 117.951,235.712 
  "></polyline>
<path clip-path="url(#clip772)" d="
M125.673 189.426 L125.673 361.429 L133.396 361.429 L133.396 189.426 L125.673 189.426 L125.673 189.426  Z
  " fill="#009af9" fill-rule="evenodd" fill-opacity="1"></path>
<polyline clip-path="url(#clip772)" style="stroke:#000000; stroke-width:1; stroke-opacity:1; fill:none" points="
  125.673,189.426 125.673,361.429 133.396,361.429 133.396,189.426 125.673,189.426 
  "></polyline>
<path clip-path="url(#clip772)" d="
M133.396 161.997 L133.396 361.429 L141.118 361.429 L141.118 161.997 L133.396 161.997 L133.396 161.997  Z
  " fill="#009af9" fill-rule="evenodd" fill-opacity="1"></path>
<polyline clip-path="url(#clip772)" style="stroke:#000000; stroke-width:1; stroke-opacity:1; fill:none" points="
  133.396,161.997 133.396,361.429 141.118,361.429 141.118,161.997 133.396,161.997 
  "></polyline>
<path clip-path="url(#clip772)" d="
M141.118 132.282 L141.118 361.429 L148.84 361.429 L148.84 132.282 L141.118 132.282 L141.118 132.282  Z
  " fill="#009af9" fill-rule="evenodd" fill-opacity="1"></path>
<polyline clip-path="url(#clip772)" style="stroke:#000000; stroke-width:1; stroke-opacity:1; fill:none" points="
  141.118,132.282 141.118,361.429 148.84,361.429 148.84,132.282 141.118,132.282 
  "></polyline>
<path clip-path="url(#clip772)" d="
M148.84 73.4236 L148.84 361.429 L156.563 361.429 L156.563 73.4236 L148.84 73.4236 L148.84 73.4236  Z
  " fill="#009af9" fill-rule="evenodd" fill-opacity="1"></path>
<polyline clip-path="url(#clip772)" style="stroke:#000000; stroke-width:1; stroke-opacity:1; fill:none" points="
  148.84,73.4236 148.84,361.429 156.563,361.429 156.563,73.4236 148.84,73.4236 
  "></polyline>
<path clip-path="url(#clip772)" d="
M156.563 77.4237 L156.563 361.429 L164.285 361.429 L164.285 77.4237 L156.563 77.4237 L156.563 77.4237  Z
  " fill="#009af9" fill-rule="evenodd" fill-opacity="1"></path>
<polyline clip-path="url(#clip772)" style="stroke:#000000; stroke-width:1; stroke-opacity:1; fill:none" points="
  156.563,77.4237 156.563,361.429 164.285,361.429 164.285,77.4237 156.563,77.4237 
  "></polyline>
<path clip-path="url(#clip772)" d="
M164.285 56.8519 L164.285 361.429 L172.007 361.429 L172.007 56.8519 L164.285 56.8519 L164.285 56.8519  Z
  " fill="#009af9" fill-rule="evenodd" fill-opacity="1"></path>
<polyline clip-path="url(#clip772)" style="stroke:#000000; stroke-width:1; stroke-opacity:1; fill:none" points="
  164.285,56.8519 164.285,361.429 172.007,361.429 172.007,56.8519 164.285,56.8519 
  "></polyline>
<path clip-path="url(#clip772)" d="
M172.007 31.7085 L172.007 361.429 L179.73 361.429 L179.73 31.7085 L172.007 31.7085 L172.007 31.7085  Z
  " fill="#009af9" fill-rule="evenodd" fill-opacity="1"></path>
<polyline clip-path="url(#clip772)" style="stroke:#000000; stroke-width:1; stroke-opacity:1; fill:none" points="
  172.007,31.7085 172.007,361.429 179.73,361.429 179.73,31.7085 172.007,31.7085 
  "></polyline>
<path clip-path="url(#clip772)" d="
M179.73 39.7087 L179.73 361.429 L187.452 361.429 L187.452 39.7087 L179.73 39.7087 L179.73 39.7087  Z
  " fill="#009af9" fill-rule="evenodd" fill-opacity="1"></path>
<polyline clip-path="url(#clip772)" style="stroke:#000000; stroke-width:1; stroke-opacity:1; fill:none" points="
  179.73,39.7087 179.73,361.429 187.452,361.429 187.452,39.7087 179.73,39.7087 
  "></polyline>
<path clip-path="url(#clip772)" d="
M187.452 21.9941 L187.452 361.429 L195.174 361.429 L195.174 21.9941 L187.452 21.9941 L187.452 21.9941  Z
  " fill="#009af9" fill-rule="evenodd" fill-opacity="1"></path>
<polyline clip-path="url(#clip772)" style="stroke:#000000; stroke-width:1; stroke-opacity:1; fill:none" points="
  187.452,21.9941 187.452,361.429 195.174,361.429 195.174,21.9941 187.452,21.9941 
  "></polyline>
<path clip-path="url(#clip772)" d="
M195.174 37.4229 L195.174 361.429 L202.897 361.429 L202.897 37.4229 L195.174 37.4229 L195.174 37.4229  Z
  " fill="#009af9" fill-rule="evenodd" fill-opacity="1"></path>
<polyline clip-path="url(#clip772)" style="stroke:#000000; stroke-width:1; stroke-opacity:1; fill:none" points="
  195.174,37.4229 195.174,361.429 202.897,361.429 202.897,37.4229 195.174,37.4229 
  "></polyline>
<path clip-path="url(#clip772)" d="
M202.897 72.8522 L202.897 361.429 L210.619 361.429 L210.619 72.8522 L202.897 72.8522 L202.897 72.8522  Z
  " fill="#009af9" fill-rule="evenodd" fill-opacity="1"></path>
<polyline clip-path="url(#clip772)" style="stroke:#000000; stroke-width:1; stroke-opacity:1; fill:none" points="
  202.897,72.8522 202.897,361.429 210.619,361.429 210.619,72.8522 202.897,72.8522 
  "></polyline>
<path clip-path="url(#clip772)" d="
M210.619 71.1378 L210.619 361.429 L218.341 361.429 L218.341 71.1378 L210.619 71.1378 L210.619 71.1378  Z
  " fill="#009af9" fill-rule="evenodd" fill-opacity="1"></path>
<polyline clip-path="url(#clip772)" style="stroke:#000000; stroke-width:1; stroke-opacity:1; fill:none" points="
  210.619,71.1378 210.619,361.429 218.341,361.429 218.341,71.1378 210.619,71.1378 
  "></polyline>
<path clip-path="url(#clip772)" d="
M218.341 115.71 L218.341 361.429 L226.063 361.429 L226.063 115.71 L218.341 115.71 L218.341 115.71  Z
  " fill="#009af9" fill-rule="evenodd" fill-opacity="1"></path>
<polyline clip-path="url(#clip772)" style="stroke:#000000; stroke-width:1; stroke-opacity:1; fill:none" points="
  218.341,115.71 218.341,361.429 226.063,361.429 226.063,115.71 218.341,115.71 
  "></polyline>
<path clip-path="url(#clip772)" d="
M226.063 135.71 L226.063 361.429 L233.786 361.429 L233.786 135.71 L226.063 135.71 L226.063 135.71  Z
  " fill="#009af9" fill-rule="evenodd" fill-opacity="1"></path>
<polyline clip-path="url(#clip772)" style="stroke:#000000; stroke-width:1; stroke-opacity:1; fill:none" points="
  226.063,135.71 226.063,361.429 233.786,361.429 233.786,135.71 226.063,135.71 
  "></polyline>
<path clip-path="url(#clip772)" d="
M233.786 156.854 L233.786 361.429 L241.508 361.429 L241.508 156.854 L233.786 156.854 L233.786 156.854  Z
  " fill="#009af9" fill-rule="evenodd" fill-opacity="1"></path>
<polyline clip-path="url(#clip772)" style="stroke:#000000; stroke-width:1; stroke-opacity:1; fill:none" points="
  233.786,156.854 233.786,361.429 241.508,361.429 241.508,156.854 233.786,156.854 
  "></polyline>
<path clip-path="url(#clip772)" d="
M241.508 173.997 L241.508 361.429 L249.23 361.429 L249.23 173.997 L241.508 173.997 L241.508 173.997  Z
  " fill="#009af9" fill-rule="evenodd" fill-opacity="1"></path>
<polyline clip-path="url(#clip772)" style="stroke:#000000; stroke-width:1; stroke-opacity:1; fill:none" points="
  241.508,173.997 241.508,361.429 249.23,361.429 249.23,173.997 241.508,173.997 
  "></polyline>
<path clip-path="url(#clip772)" d="
M249.23 193.426 L249.23 361.429 L256.953 361.429 L256.953 193.426 L249.23 193.426 L249.23 193.426  Z
  " fill="#009af9" fill-rule="evenodd" fill-opacity="1"></path>
<polyline clip-path="url(#clip772)" style="stroke:#000000; stroke-width:1; stroke-opacity:1; fill:none" points="
  249.23,193.426 249.23,361.429 256.953,361.429 256.953,193.426 249.23,193.426 
  "></polyline>
<path clip-path="url(#clip772)" d="
M256.953 203.712 L256.953 361.429 L264.675 361.429 L264.675 203.712 L256.953 203.712 L256.953 203.712  Z
  " fill="#009af9" fill-rule="evenodd" fill-opacity="1"></path>
<polyline clip-path="url(#clip772)" style="stroke:#000000; stroke-width:1; stroke-opacity:1; fill:none" points="
  256.953,203.712 256.953,361.429 264.675,361.429 264.675,203.712 256.953,203.712 
  "></polyline>
<path clip-path="url(#clip772)" d="
M264.675 233.427 L264.675 361.429 L272.397 361.429 L272.397 233.427 L264.675 233.427 L264.675 233.427  Z
  " fill="#009af9" fill-rule="evenodd" fill-opacity="1"></path>
<polyline clip-path="url(#clip772)" style="stroke:#000000; stroke-width:1; stroke-opacity:1; fill:none" points="
  264.675,233.427 264.675,361.429 272.397,361.429 272.397,233.427 264.675,233.427 
  "></polyline>
<path clip-path="url(#clip772)" d="
M272.397 264.856 L272.397 361.429 L280.12 361.429 L280.12 264.856 L272.397 264.856 L272.397 264.856  Z
  " fill="#009af9" fill-rule="evenodd" fill-opacity="1"></path>
<polyline clip-path="url(#clip772)" style="stroke:#000000; stroke-width:1; stroke-opacity:1; fill:none" points="
  272.397,264.856 272.397,361.429 280.12,361.429 280.12,264.856 272.397,264.856 
  "></polyline>
<path clip-path="url(#clip772)" d="
M280.12 267.713 L280.12 361.429 L287.842 361.429 L287.842 267.713 L280.12 267.713 L280.12 267.713  Z
  " fill="#009af9" fill-rule="evenodd" fill-opacity="1"></path>
<polyline clip-path="url(#clip772)" style="stroke:#000000; stroke-width:1; stroke-opacity:1; fill:none" points="
  280.12,267.713 280.12,361.429 287.842,361.429 287.842,267.713 280.12,267.713 
  "></polyline>
<path clip-path="url(#clip772)" d="
M287.842 284.856 L287.842 361.429 L295.564 361.429 L295.564 284.856 L287.842 284.856 L287.842 284.856  Z
  " fill="#009af9" fill-rule="evenodd" fill-opacity="1"></path>
<polyline clip-path="url(#clip772)" style="stroke:#000000; stroke-width:1; stroke-opacity:1; fill:none" points="
  287.842,284.856 287.842,361.429 295.564,361.429 295.564,284.856 287.842,284.856 
  "></polyline>
<path clip-path="url(#clip772)" d="
M295.564 297.428 L295.564 361.429 L303.287 361.429 L303.287 297.428 L295.564 297.428 L295.564 297.428  Z
  " fill="#009af9" fill-rule="evenodd" fill-opacity="1"></path>
<polyline clip-path="url(#clip772)" style="stroke:#000000; stroke-width:1; stroke-opacity:1; fill:none" points="
  295.564,297.428 295.564,361.429 303.287,361.429 303.287,297.428 295.564,297.428 
  "></polyline>
<path clip-path="url(#clip772)" d="
M303.287 308.857 L303.287 361.429 L311.009 361.429 L311.009 308.857 L303.287 308.857 L303.287 308.857  Z
  " fill="#009af9" fill-rule="evenodd" fill-opacity="1"></path>
<polyline clip-path="url(#clip772)" style="stroke:#000000; stroke-width:1; stroke-opacity:1; fill:none" points="
  303.287,308.857 303.287,361.429 311.009,361.429 311.009,308.857 303.287,308.857 
  "></polyline>
<path clip-path="url(#clip772)" d="
M311.009 308.857 L311.009 361.429 L318.731 361.429 L318.731 308.857 L311.009 308.857 L311.009 308.857  Z
  " fill="#009af9" fill-rule="evenodd" fill-opacity="1"></path>
<polyline clip-path="url(#clip772)" style="stroke:#000000; stroke-width:1; stroke-opacity:1; fill:none" points="
  311.009,308.857 311.009,361.429 318.731,361.429 318.731,308.857 311.009,308.857 
  "></polyline>
<path clip-path="url(#clip772)" d="
M318.731 322 L318.731 361.429 L326.454 361.429 L326.454 322 L318.731 322 L318.731 322  Z
  " fill="#009af9" fill-rule="evenodd" fill-opacity="1"></path>
<polyline clip-path="url(#clip772)" style="stroke:#000000; stroke-width:1; stroke-opacity:1; fill:none" points="
  318.731,322 318.731,361.429 326.454,361.429 326.454,322 318.731,322 
  "></polyline>
<path clip-path="url(#clip772)" d="
M326.454 322.571 L326.454 361.429 L334.176 361.429 L334.176 322.571 L326.454 322.571 L326.454 322.571  Z
  " fill="#009af9" fill-rule="evenodd" fill-opacity="1"></path>
<polyline clip-path="url(#clip772)" style="stroke:#000000; stroke-width:1; stroke-opacity:1; fill:none" points="
  326.454,322.571 326.454,361.429 334.176,361.429 334.176,322.571 326.454,322.571 
  "></polyline>
<path clip-path="url(#clip772)" d="
M334.176 339.714 L334.176 361.429 L341.898 361.429 L341.898 339.714 L334.176 339.714 L334.176 339.714  Z
  " fill="#009af9" fill-rule="evenodd" fill-opacity="1"></path>
<polyline clip-path="url(#clip772)" style="stroke:#000000; stroke-width:1; stroke-opacity:1; fill:none" points="
  334.176,339.714 334.176,361.429 341.898,361.429 341.898,339.714 334.176,339.714 
  "></polyline>
<path clip-path="url(#clip772)" d="
M341.898 340.857 L341.898 361.429 L349.62 361.429 L349.62 340.857 L341.898 340.857 L341.898 340.857  Z
  " fill="#009af9" fill-rule="evenodd" fill-opacity="1"></path>
<polyline clip-path="url(#clip772)" style="stroke:#000000; stroke-width:1; stroke-opacity:1; fill:none" points="
  341.898,340.857 341.898,361.429 349.62,361.429 349.62,340.857 341.898,340.857 
  "></polyline>
<path clip-path="url(#clip772)" d="
M349.62 343.143 L349.62 361.429 L357.343 361.429 L357.343 343.143 L349.62 343.143 L349.62 343.143  Z
  " fill="#009af9" fill-rule="evenodd" fill-opacity="1"></path>
<polyline clip-path="url(#clip772)" style="stroke:#000000; stroke-width:1; stroke-opacity:1; fill:none" points="
  349.62,343.143 349.62,361.429 357.343,361.429 357.343,343.143 349.62,343.143 
  "></polyline>
<path clip-path="url(#clip772)" d="
M357.343 345.429 L357.343 361.429 L365.065 361.429 L365.065 345.429 L357.343 345.429 L357.343 345.429  Z
  " fill="#009af9" fill-rule="evenodd" fill-opacity="1"></path>
<polyline clip-path="url(#clip772)" style="stroke:#000000; stroke-width:1; stroke-opacity:1; fill:none" points="
  357.343,345.429 357.343,361.429 365.065,361.429 365.065,345.429 357.343,345.429 
  "></polyline>
<path clip-path="url(#clip772)" d="
M365.065 344.857 L365.065 361.429 L372.787 361.429 L372.787 344.857 L365.065 344.857 L365.065 344.857  Z
  " fill="#009af9" fill-rule="evenodd" fill-opacity="1"></path>
<polyline clip-path="url(#clip772)" style="stroke:#000000; stroke-width:1; stroke-opacity:1; fill:none" points="
  365.065,344.857 365.065,361.429 372.787,361.429 372.787,344.857 365.065,344.857 
  "></polyline>
<path clip-path="url(#clip772)" d="
M372.787 351.143 L372.787 361.429 L380.51 361.429 L380.51 351.143 L372.787 351.143 L372.787 351.143  Z
  " fill="#009af9" fill-rule="evenodd" fill-opacity="1"></path>
<polyline clip-path="url(#clip772)" style="stroke:#000000; stroke-width:1; stroke-opacity:1; fill:none" points="
  372.787,351.143 372.787,361.429 380.51,361.429 380.51,351.143 372.787,351.143 
  "></polyline>
<path clip-path="url(#clip772)" d="
M380.51 349.429 L380.51 361.429 L388.232 361.429 L388.232 349.429 L380.51 349.429 L380.51 349.429  Z
  " fill="#009af9" fill-rule="evenodd" fill-opacity="1"></path>
<polyline clip-path="url(#clip772)" style="stroke:#000000; stroke-width:1; stroke-opacity:1; fill:none" points="
  380.51,349.429 380.51,361.429 388.232,361.429 388.232,349.429 380.51,349.429 
  "></polyline>
<path clip-path="url(#clip772)" d="
M388.232 354.572 L388.232 361.429 L395.954 361.429 L395.954 354.572 L388.232 354.572 L388.232 354.572  Z
  " fill="#009af9" fill-rule="evenodd" fill-opacity="1"></path>
<polyline clip-path="url(#clip772)" style="stroke:#000000; stroke-width:1; stroke-opacity:1; fill:none" points="
  388.232,354.572 388.232,361.429 395.954,361.429 395.954,354.572 388.232,354.572 
  "></polyline>
<path clip-path="url(#clip772)" d="
M395.954 356.286 L395.954 361.429 L403.677 361.429 L403.677 356.286 L395.954 356.286 L395.954 356.286  Z
  " fill="#009af9" fill-rule="evenodd" fill-opacity="1"></path>
<polyline clip-path="url(#clip772)" style="stroke:#000000; stroke-width:1; stroke-opacity:1; fill:none" points="
  395.954,356.286 395.954,361.429 403.677,361.429 403.677,356.286 395.954,356.286 
  "></polyline>
<path clip-path="url(#clip772)" d="
M403.677 355.715 L403.677 361.429 L411.399 361.429 L411.399 355.715 L403.677 355.715 L403.677 355.715  Z
  " fill="#009af9" fill-rule="evenodd" fill-opacity="1"></path>
<polyline clip-path="url(#clip772)" style="stroke:#000000; stroke-width:1; stroke-opacity:1; fill:none" points="
  403.677,355.715 403.677,361.429 411.399,361.429 411.399,355.715 403.677,355.715 
  "></polyline>
<path clip-path="url(#clip772)" d="
M411.399 359.143 L411.399 361.429 L419.121 361.429 L419.121 359.143 L411.399 359.143 L411.399 359.143  Z
  " fill="#009af9" fill-rule="evenodd" fill-opacity="1"></path>
<polyline clip-path="url(#clip772)" style="stroke:#000000; stroke-width:1; stroke-opacity:1; fill:none" points="
  411.399,359.143 411.399,361.429 419.121,361.429 419.121,359.143 411.399,359.143 
  "></polyline>
<path clip-path="url(#clip772)" d="
M419.121 359.143 L419.121 361.429 L426.844 361.429 L426.844 359.143 L419.121 359.143 L419.121 359.143  Z
  " fill="#009af9" fill-rule="evenodd" fill-opacity="1"></path>
<polyline clip-path="url(#clip772)" style="stroke:#000000; stroke-width:1; stroke-opacity:1; fill:none" points="
  419.121,359.143 419.121,361.429 426.844,361.429 426.844,359.143 419.121,359.143 
  "></polyline>
<path clip-path="url(#clip772)" d="
M426.844 357.429 L426.844 361.429 L434.566 361.429 L434.566 357.429 L426.844 357.429 L426.844 357.429  Z
  " fill="#009af9" fill-rule="evenodd" fill-opacity="1"></path>
<polyline clip-path="url(#clip772)" style="stroke:#000000; stroke-width:1; stroke-opacity:1; fill:none" points="
  426.844,357.429 426.844,361.429 434.566,361.429 434.566,357.429 426.844,357.429 
  "></polyline>
<path clip-path="url(#clip772)" d="
M434.566 359.715 L434.566 361.429 L442.288 361.429 L442.288 359.715 L434.566 359.715 L434.566 359.715  Z
  " fill="#009af9" fill-rule="evenodd" fill-opacity="1"></path>
<polyline clip-path="url(#clip772)" style="stroke:#000000; stroke-width:1; stroke-opacity:1; fill:none" points="
  434.566,359.715 434.566,361.429 442.288,361.429 442.288,359.715 434.566,359.715 
  "></polyline>
<path clip-path="url(#clip772)" d="
M442.288 358.572 L442.288 361.429 L450.011 361.429 L450.011 358.572 L442.288 358.572 L442.288 358.572  Z
  " fill="#009af9" fill-rule="evenodd" fill-opacity="1"></path>
<polyline clip-path="url(#clip772)" style="stroke:#000000; stroke-width:1; stroke-opacity:1; fill:none" points="
  442.288,358.572 442.288,361.429 450.011,361.429 450.011,358.572 442.288,358.572 
  "></polyline>
<path clip-path="url(#clip772)" d="
M450.011 360.857 L450.011 361.429 L457.733 361.429 L457.733 360.857 L450.011 360.857 L450.011 360.857  Z
  " fill="#009af9" fill-rule="evenodd" fill-opacity="1"></path>
<polyline clip-path="url(#clip772)" style="stroke:#000000; stroke-width:1; stroke-opacity:1; fill:none" points="
  450.011,360.857 450.011,361.429 457.733,361.429 457.733,360.857 450.011,360.857 
  "></polyline>
<path clip-path="url(#clip772)" d="
M457.733 360.857 L457.733 361.429 L465.455 361.429 L465.455 360.857 L457.733 360.857 L457.733 360.857  Z
  " fill="#009af9" fill-rule="evenodd" fill-opacity="1"></path>
<polyline clip-path="url(#clip772)" style="stroke:#000000; stroke-width:1; stroke-opacity:1; fill:none" points="
  457.733,360.857 457.733,361.429 465.455,361.429 465.455,360.857 457.733,360.857 
  "></polyline>
<path clip-path="url(#clip772)" d="
M465.455 360.857 L465.455 361.429 L473.177 361.429 L473.177 360.857 L465.455 360.857 L465.455 360.857  Z
  " fill="#009af9" fill-rule="evenodd" fill-opacity="1"></path>
<polyline clip-path="url(#clip772)" style="stroke:#000000; stroke-width:1; stroke-opacity:1; fill:none" points="
  465.455,360.857 465.455,361.429 473.177,361.429 473.177,360.857 465.455,360.857 
  "></polyline>
<path clip-path="url(#clip772)" d="
M473.177 360.286 L473.177 361.429 L480.9 361.429 L480.9 360.286 L473.177 360.286 L473.177 360.286  Z
  " fill="#009af9" fill-rule="evenodd" fill-opacity="1"></path>
<polyline clip-path="url(#clip772)" style="stroke:#000000; stroke-width:1; stroke-opacity:1; fill:none" points="
  473.177,360.286 473.177,361.429 480.9,361.429 480.9,360.286 473.177,360.286 
  "></polyline>
<path clip-path="url(#clip772)" d="
M480.9 360.286 L480.9 361.429 L488.622 361.429 L488.622 360.286 L480.9 360.286 L480.9 360.286  Z
  " fill="#009af9" fill-rule="evenodd" fill-opacity="1"></path>
<polyline clip-path="url(#clip772)" style="stroke:#000000; stroke-width:1; stroke-opacity:1; fill:none" points="
  480.9,360.286 480.9,361.429 488.622,361.429 488.622,360.286 480.9,360.286 
  "></polyline>
<path clip-path="url(#clip772)" d="
M488.622 361.429 L488.622 361.429 L496.344 361.429 L496.344 361.429 L488.622 361.429 L488.622 361.429  Z
  " fill="#009af9" fill-rule="evenodd" fill-opacity="1"></path>
<polyline clip-path="url(#clip772)" style="stroke:#000000; stroke-width:1; stroke-opacity:1; fill:none" points="
  488.622,361.429 488.622,361.429 496.344,361.429 488.622,361.429 
  "></polyline>
<path clip-path="url(#clip772)" d="
M496.344 360.857 L496.344 361.429 L504.067 361.429 L504.067 360.857 L496.344 360.857 L496.344 360.857  Z
  " fill="#009af9" fill-rule="evenodd" fill-opacity="1"></path>
<polyline clip-path="url(#clip772)" style="stroke:#000000; stroke-width:1; stroke-opacity:1; fill:none" points="
  496.344,360.857 496.344,361.429 504.067,361.429 504.067,360.857 496.344,360.857 
  "></polyline>
<path clip-path="url(#clip772)" d="
M504.067 361.429 L504.067 361.429 L511.789 361.429 L511.789 361.429 L504.067 361.429 L504.067 361.429  Z
  " fill="#009af9" fill-rule="evenodd" fill-opacity="1"></path>
<polyline clip-path="url(#clip772)" style="stroke:#000000; stroke-width:1; stroke-opacity:1; fill:none" points="
  504.067,361.429 504.067,361.429 511.789,361.429 504.067,361.429 
  "></polyline>
<path clip-path="url(#clip772)" d="
M511.789 360.857 L511.789 361.429 L519.511 361.429 L519.511 360.857 L511.789 360.857 L511.789 360.857  Z
  " fill="#009af9" fill-rule="evenodd" fill-opacity="1"></path>
<polyline clip-path="url(#clip772)" style="stroke:#000000; stroke-width:1; stroke-opacity:1; fill:none" points="
  511.789,360.857 511.789,361.429 519.511,361.429 519.511,360.857 511.789,360.857 
  "></polyline>
<path clip-path="url(#clip772)" d="
M519.511 360.857 L519.511 361.429 L527.234 361.429 L527.234 360.857 L519.511 360.857 L519.511 360.857  Z
  " fill="#009af9" fill-rule="evenodd" fill-opacity="1"></path>
<polyline clip-path="url(#clip772)" style="stroke:#000000; stroke-width:1; stroke-opacity:1; fill:none" points="
  519.511,360.857 519.511,361.429 527.234,361.429 527.234,360.857 519.511,360.857 
  "></polyline>
<path clip-path="url(#clip772)" d="
M527.234 361.429 L527.234 361.429 L534.956 361.429 L534.956 361.429 L527.234 361.429 L527.234 361.429  Z
  " fill="#009af9" fill-rule="evenodd" fill-opacity="1"></path>
<polyline clip-path="url(#clip772)" style="stroke:#000000; stroke-width:1; stroke-opacity:1; fill:none" points="
  527.234,361.429 527.234,361.429 534.956,361.429 527.234,361.429 
  "></polyline>
<path clip-path="url(#clip772)" d="
M534.956 360.857 L534.956 361.429 L542.678 361.429 L542.678 360.857 L534.956 360.857 L534.956 360.857  Z
  " fill="#009af9" fill-rule="evenodd" fill-opacity="1"></path>
<polyline clip-path="url(#clip772)" style="stroke:#000000; stroke-width:1; stroke-opacity:1; fill:none" points="
  534.956,360.857 534.956,361.429 542.678,361.429 542.678,360.857 534.956,360.857 
  "></polyline>
<path clip-path="url(#clip772)" d="
M542.678 361.429 L542.678 361.429 L550.401 361.429 L550.401 361.429 L542.678 361.429 L542.678 361.429  Z
  " fill="#009af9" fill-rule="evenodd" fill-opacity="1"></path>
<polyline clip-path="url(#clip772)" style="stroke:#000000; stroke-width:1; stroke-opacity:1; fill:none" points="
  542.678,361.429 542.678,361.429 550.401,361.429 542.678,361.429 
  "></polyline>
<path clip-path="url(#clip772)" d="
M550.401 360.857 L550.401 361.429 L558.123 361.429 L558.123 360.857 L550.401 360.857 L550.401 360.857  Z
  " fill="#009af9" fill-rule="evenodd" fill-opacity="1"></path>
<polyline clip-path="url(#clip772)" style="stroke:#000000; stroke-width:1; stroke-opacity:1; fill:none" points="
  550.401,360.857 550.401,361.429 558.123,361.429 558.123,360.857 550.401,360.857 
  "></polyline>
<path clip-path="url(#clip770)" d="
M496.476 54.0444 L569.968 54.0444 L569.968 23.8044 L496.476 23.8044  Z
  " fill="#ffffff" fill-rule="evenodd" fill-opacity="1"></path>
<polyline clip-path="url(#clip770)" style="stroke:#000000; stroke-width:1; stroke-opacity:1; fill:none" points="
  496.476,54.0444 569.968,54.0444 569.968,23.8044 496.476,23.8044 496.476,54.0444 
  "></polyline>
<path clip-path="url(#clip770)" d="
M502.549 44.9724 L538.992 44.9724 L538.992 32.8764 L502.549 32.8764 L502.549 44.9724  Z
  " fill="#009af9" fill-rule="evenodd" fill-opacity="1"></path>
<polyline clip-path="url(#clip770)" style="stroke:#000000; stroke-width:1; stroke-opacity:1; fill:none" points="
  502.549,44.9724 538.992,44.9724 538.992,32.8764 502.549,32.8764 502.549,44.9724 
  "></polyline>
<path clip-path="url(#clip770)" d="M 0 0 M548.526 43.8462 Q548.075 45.0036 547.647 45.3566 Q547.218 45.7097 546.501 45.7097 L545.65 45.7097 L545.65 44.8185 L546.275 44.8185 Q546.715 44.8185 546.958 44.6101 Q547.201 44.4018 547.496 43.6263 L547.687 43.1402 L545.066 36.7629 L546.194 36.7629 L548.22 41.8324 L550.245 36.7629 L551.373 36.7629 L548.526 43.8462 Z" fill="#000000" fill-rule="evenodd" fill-opacity="1"></path><path clip-path="url(#clip770)" d="M 0 0 M552.843 42.2606 L554.753 42.2606 L554.753 35.6692 L552.676 36.0859 L552.676 35.0211 L554.742 34.6044 L555.91 34.6044 L555.91 42.2606 L557.82 42.2606 L557.82 43.2444 L552.843 43.2444 L552.843 42.2606 Z" fill="#000000" fill-rule="evenodd" fill-opacity="1"></path></svg>