<svg xmlns="http://www.w3.org/2000/svg" xmlns:xlink="http://www.w3.org/1999/xlink" width="150" height="100" viewBox="0 0 600 400">
<defs>
  <clipPath id="clip650">
    <rect x="0" y="0" width="600" height="400"></rect>
  </clipPath>
</defs>
<path clip-path="url(#clip650)" d="
M0 400 L600 400 L600 0 L0 0  Z
  " fill="#ffffff" fill-rule="evenodd" fill-opacity="1"></path>
<defs>
  <clipPath id="clip651">
    <rect x="120" y="0" width="421" height="400"></rect>
  </clipPath>
</defs>
<path clip-path="url(#clip650)" d="
M36.7132 371.612 L588.189 371.612 L588.189 11.811 L36.7132 11.811  Z
  " fill="#ffffff" fill-rule="evenodd" fill-opacity="1"></path>
<defs>
  <clipPath id="clip652">
    <rect x="36" y="11" width="552" height="361"></rect>
  </clipPath>
</defs>
<polyline clip-path="url(#clip652)" style="stroke:#000000; stroke-width:0.5; stroke-opacity:0.1; fill:none" points="
  104.347,371.612 104.347,11.811 
  "></polyline>
<polyline clip-path="url(#clip652)" style="stroke:#000000; stroke-width:0.5; stroke-opacity:0.1; fill:none" points="
  208.399,371.612 208.399,11.811 
  "></polyline>
<polyline clip-path="url(#clip652)" style="stroke:#000000; stroke-width:0.5; stroke-opacity:0.1; fill:none" points="
  312.451,371.612 312.451,11.811 
  "></polyline>
<polyline clip-path="url(#clip652)" style="stroke:#000000; stroke-width:0.5; stroke-opacity:0.1; fill:none" points="
  416.503,371.612 416.503,11.811 
  "></polyline>
<polyline clip-path="url(#clip652)" style="stroke:#000000; stroke-width:0.5; stroke-opacity:0.1; fill:none" points="
  520.555,371.612 520.555,11.811 
  "></polyline>
<polyline clip-path="url(#clip650)" style="stroke:#000000; stroke-width:1; stroke-opacity:1; fill:none" points="
  36.7132,371.612 588.189,371.612 
  "></polyline>
<polyline clip-path="url(#clip650)" style="stroke:#000000; stroke-width:1; stroke-opacity:1; fill:none" points="
  104.347,371.612 104.347,367.294 
  "></polyline>
<polyline clip-path="url(#clip650)" style="stroke:#000000; stroke-width:1; stroke-opacity:1; fill:none" points="
  208.399,371.612 208.399,367.294 
  "></polyline>
<polyline clip-path="url(#clip650)" style="stroke:#000000; stroke-width:1; stroke-opacity:1; fill:none" points="
  312.451,371.612 312.451,367.294 
  "></polyline>
<polyline clip-path="url(#clip650)" style="stroke:#000000; stroke-width:1; stroke-opacity:1; fill:none" points="
  416.503,371.612 416.503,367.294 
  "></polyline>
<polyline clip-path="url(#clip650)" style="stroke:#000000; stroke-width:1; stroke-opacity:1; fill:none" points="
  520.555,371.612 520.555,367.294 
  "></polyline>
<path clip-path="url(#clip650)" d="M 0 0 M103.01 385.796 L107.09 385.796 L107.09 386.78 L101.604 386.78 L101.604 385.796 Q102.27 385.108 103.415 383.95 Q104.567 382.787 104.862 382.451 Q105.423 381.821 105.643 381.386 Q105.869 380.947 105.869 380.524 Q105.869 379.836 105.383 379.402 Q104.903 378.968 104.127 378.968 Q103.577 378.968 102.964 379.158 Q102.356 379.349 101.662 379.737 L101.662 378.557 Q102.368 378.273 102.981 378.128 Q103.595 377.984 104.104 377.984 Q105.447 377.984 106.245 378.655 Q107.044 379.326 107.044 380.449 Q107.044 380.981 106.841 381.462 Q106.644 381.936 106.118 382.584 Q105.973 382.752 105.198 383.557 Q104.422 384.355 103.01 385.796 Z" fill="#000000" fill-rule="evenodd" fill-opacity="1"></path><path clip-path="url(#clip650)" d="M 0 0 M209.151 379.158 L206.2 383.771 L209.151 383.771 L209.151 379.158 M208.845 378.14 L210.315 378.14 L210.315 383.771 L211.547 383.771 L211.547 384.743 L210.315 384.743 L210.315 386.78 L209.151 386.78 L209.151 384.743 L205.251 384.743 L205.251 383.614 L208.845 378.14 Z" fill="#000000" fill-rule="evenodd" fill-opacity="1"></path><path clip-path="url(#clip650)" d="M 0 0 M312.552 381.994 Q311.765 381.994 311.302 382.532 Q310.845 383.07 310.845 384.008 Q310.845 384.94 311.302 385.484 Q311.765 386.022 312.552 386.022 Q313.339 386.022 313.797 385.484 Q314.26 384.94 314.26 384.008 Q314.26 383.07 313.797 382.532 Q313.339 381.994 312.552 381.994 M314.873 378.331 L314.873 379.396 Q314.433 379.187 313.982 379.077 Q313.536 378.968 313.096 378.968 Q311.939 378.968 311.326 379.749 Q310.718 380.53 310.631 382.11 Q310.973 381.606 311.488 381.34 Q312.003 381.068 312.622 381.068 Q313.924 381.068 314.676 381.861 Q315.434 382.648 315.434 384.008 Q315.434 385.339 314.647 386.143 Q313.86 386.948 312.552 386.948 Q311.054 386.948 310.261 385.802 Q309.468 384.65 309.468 382.469 Q309.468 380.42 310.44 379.205 Q311.412 377.984 313.05 377.984 Q313.49 377.984 313.935 378.071 Q314.387 378.157 314.873 378.331 Z" fill="#000000" fill-rule="evenodd" fill-opacity="1"></path><path clip-path="url(#clip650)" d="M 0 0 M416.503 382.677 Q415.67 382.677 415.189 383.123 Q414.715 383.568 414.715 384.349 Q414.715 385.131 415.189 385.576 Q415.67 386.022 416.503 386.022 Q417.336 386.022 417.817 385.576 Q418.297 385.125 418.297 384.349 Q418.297 383.568 417.817 383.123 Q417.342 382.677 416.503 382.677 M415.334 382.179 Q414.582 381.994 414.159 381.479 Q413.743 380.964 413.743 380.223 Q413.743 379.187 414.478 378.586 Q415.218 377.984 416.503 377.984 Q417.794 377.984 418.529 378.586 Q419.264 379.187 419.264 380.223 Q419.264 380.964 418.841 381.479 Q418.424 381.994 417.678 382.179 Q418.523 382.376 418.992 382.949 Q419.466 383.522 419.466 384.349 Q419.466 385.605 418.696 386.276 Q417.933 386.948 416.503 386.948 Q415.074 386.948 414.304 386.276 Q413.54 385.605 413.54 384.349 Q413.54 383.522 414.015 382.949 Q414.489 382.376 415.334 382.179 M414.906 380.333 Q414.906 381.005 415.323 381.381 Q415.745 381.757 416.503 381.757 Q417.255 381.757 417.678 381.381 Q418.106 381.005 418.106 380.333 Q418.106 379.662 417.678 379.286 Q417.255 378.91 416.503 378.91 Q415.745 378.91 415.323 379.286 Q414.906 379.662 414.906 380.333 Z" fill="#000000" fill-rule="evenodd" fill-opacity="1"></path><path clip-path="url(#clip650)" d="M 0 0 M514.774 385.796 L516.684 385.796 L516.684 379.205 L514.606 379.621 L514.606 378.557 L516.672 378.14 L517.841 378.14 L517.841 385.796 L519.751 385.796 L519.751 386.78 L514.774 386.78 L514.774 385.796 Z" fill="#000000" fill-rule="evenodd" fill-opacity="1"></path><path clip-path="url(#clip650)" d="M 0 0 M523.518 378.91 Q522.615 378.91 522.158 379.801 Q521.707 380.686 521.707 382.469 Q521.707 384.245 522.158 385.136 Q522.615 386.022 523.518 386.022 Q524.427 386.022 524.878 385.136 Q525.335 384.245 525.335 382.469 Q525.335 380.686 524.878 379.801 Q524.427 378.91 523.518 378.91 M523.518 377.984 Q524.971 377.984 525.735 379.135 Q526.504 380.281 526.504 382.469 Q526.504 384.65 525.735 385.802 Q524.971 386.948 523.518 386.948 Q522.066 386.948 521.296 385.802 Q520.532 384.65 520.532 382.469 Q520.532 380.281 521.296 379.135 Q522.066 377.984 523.518 377.984 Z" fill="#000000" fill-rule="evenodd" fill-opacity="1"></path><polyline clip-path="url(#clip652)" style="stroke:#000000; stroke-width:0.5; stroke-opacity:0.1; fill:none" points="
  36.7132,298.198 588.189,298.198 
  "></polyline>
<polyline clip-path="url(#clip652)" style="stroke:#000000; stroke-width:0.5; stroke-opacity:0.1; fill:none" points="
  36.7132,215.65 588.189,215.65 
  "></polyline>
<polyline clip-path="url(#clip652)" style="stroke:#000000; stroke-width:0.5; stroke-opacity:0.1; fill:none" points="
  36.7132,133.103 588.189,133.103 
  "></polyline>
<polyline clip-path="url(#clip652)" style="stroke:#000000; stroke-width:0.5; stroke-opacity:0.1; fill:none" points="
  36.7132,50.5555 588.189,50.5555 
  "></polyline>
<polyline clip-path="url(#clip650)" style="stroke:#000000; stroke-width:1; stroke-opacity:1; fill:none" points="
  36.7132,371.612 36.7132,11.811 
  "></polyline>
<polyline clip-path="url(#clip650)" style="stroke:#000000; stroke-width:1; stroke-opacity:1; fill:none" points="
  36.7132,298.198 43.3309,298.198 
  "></polyline>
<polyline clip-path="url(#clip650)" style="stroke:#000000; stroke-width:1; stroke-opacity:1; fill:none" points="
  36.7132,215.65 43.3309,215.65 
  "></polyline>
<polyline clip-path="url(#clip650)" style="stroke:#000000; stroke-width:1; stroke-opacity:1; fill:none" points="
  36.7132,133.103 43.3309,133.103 
  "></polyline>
<polyline clip-path="url(#clip650)" style="stroke:#000000; stroke-width:1; stroke-opacity:1; fill:none" points="
  36.7132,50.5555 43.3309,50.5555 
  "></polyline>
<path clip-path="url(#clip650)" d="M 0 0 M15.7341 294.647 Q14.8314 294.647 14.3742 295.539 Q13.9228 296.424 13.9228 298.206 Q13.9228 299.983 14.3742 300.874 Q14.8314 301.76 15.7341 301.76 Q16.6427 301.76 17.0941 300.874 Q17.5512 299.983 17.5512 298.206 Q17.5512 296.424 17.0941 295.539 Q16.6427 294.647 15.7341 294.647 M15.7341 293.721 Q17.1867 293.721 17.9505 294.873 Q18.7202 296.019 18.7202 298.206 Q18.7202 300.388 17.9505 301.54 Q17.1867 302.685 15.7341 302.685 Q14.2816 302.685 13.5119 301.54 Q12.748 300.388 12.748 298.206 Q12.748 296.019 13.5119 294.873 Q14.2816 293.721 15.7341 293.721 Z" fill="#000000" fill-rule="evenodd" fill-opacity="1"></path><path clip-path="url(#clip650)" d="M 0 0 M19.9876 301.048 L21.2086 301.048 L21.2086 302.518 L19.9876 302.518 L19.9876 301.048 Z" fill="#000000" fill-rule="evenodd" fill-opacity="1"></path><path clip-path="url(#clip650)" d="M 0 0 M22.4876 293.878 L27.0767 293.878 L27.0767 294.861 L23.5582 294.861 L23.5582 296.979 Q23.8128 296.893 24.0674 296.852 Q24.322 296.806 24.5767 296.806 Q26.0234 296.806 26.8683 297.599 Q27.7132 298.392 27.7132 299.746 Q27.7132 301.14 26.8452 301.916 Q25.9771 302.685 24.3973 302.685 Q23.8533 302.685 23.2862 302.593 Q22.7248 302.5 22.123 302.315 L22.123 301.14 Q22.6438 301.424 23.1994 301.563 Q23.7549 301.702 24.3741 301.702 Q25.3753 301.702 25.9598 301.175 Q26.5443 300.648 26.5443 299.746 Q26.5443 298.843 25.9598 298.316 Q25.3753 297.79 24.3741 297.79 Q23.9054 297.79 23.4366 297.894 Q22.9737 297.998 22.4876 298.218 L22.4876 293.878 Z" fill="#000000" fill-rule="evenodd" fill-opacity="1"></path><path clip-path="url(#clip650)" d="M 0 0 M13.4946 218.986 L15.4043 218.986 L15.4043 212.395 L13.3267 212.812 L13.3267 211.747 L15.3927 211.33 L16.5617 211.33 L16.5617 218.986 L18.4714 218.986 L18.4714 219.97 L13.4946 219.97 L13.4946 218.986 Z" fill="#000000" fill-rule="evenodd" fill-opacity="1"></path><path clip-path="url(#clip650)" d="M 0 0 M19.7387 218.5 L20.9598 218.5 L20.9598 219.97 L19.7387 219.97 L19.7387 218.5 Z" fill="#000000" fill-rule="evenodd" fill-opacity="1"></path><path clip-path="url(#clip650)" d="M 0 0 M24.7271 212.1 Q23.8244 212.1 23.3672 212.991 Q22.9158 213.877 22.9158 215.659 Q22.9158 217.436 23.3672 218.327 Q23.8244 219.212 24.7271 219.212 Q25.6357 219.212 26.0871 218.327 Q26.5443 217.436 26.5443 215.659 Q26.5443 213.877 26.0871 212.991 Q25.6357 212.1 24.7271 212.1 M24.7271 211.174 Q26.1797 211.174 26.9436 212.326 Q27.7132 213.471 27.7132 215.659 Q27.7132 217.841 26.9436 218.992 Q26.1797 220.138 24.7271 220.138 Q23.2746 220.138 22.5049 218.992 Q21.741 217.841 21.741 215.659 Q21.741 213.471 22.5049 212.326 Q23.2746 211.174 24.7271 211.174 Z" fill="#000000" fill-rule="evenodd" fill-opacity="1"></path><path clip-path="url(#clip650)" d="M 0 0 M13.7434 136.439 L15.6531 136.439 L15.6531 129.848 L13.5756 130.264 L13.5756 129.2 L15.6415 128.783 L16.8105 128.783 L16.8105 136.439 L18.7202 136.439 L18.7202 137.423 L13.7434 137.423 L13.7434 136.439 Z" fill="#000000" fill-rule="evenodd" fill-opacity="1"></path><path clip-path="url(#clip650)" d="M 0 0 M19.9876 135.953 L21.2086 135.953 L21.2086 137.423 L19.9876 137.423 L19.9876 135.953 Z" fill="#000000" fill-rule="evenodd" fill-opacity="1"></path><path clip-path="url(#clip650)" d="M 0 0 M22.4876 128.783 L27.0767 128.783 L27.0767 129.767 L23.5582 129.767 L23.5582 131.885 Q23.8128 131.798 24.0674 131.757 Q24.322 131.711 24.5767 131.711 Q26.0234 131.711 26.8683 132.504 Q27.7132 133.297 27.7132 134.651 Q27.7132 136.046 26.8452 136.821 Q25.9771 137.591 24.3973 137.591 Q23.8533 137.591 23.2862 137.498 Q22.7248 137.406 22.123 137.22 L22.123 136.046 Q22.6438 136.329 23.1994 136.468 Q23.7549 136.607 24.3741 136.607 Q25.3753 136.607 25.9598 136.08 Q26.5443 135.554 26.5443 134.651 Q26.5443 133.748 25.9598 133.222 Q25.3753 132.695 24.3741 132.695 Q23.9054 132.695 23.4366 132.799 Q22.9737 132.903 22.4876 133.123 L22.4876 128.783 Z" fill="#000000" fill-rule="evenodd" fill-opacity="1"></path><path clip-path="url(#clip650)" d="M 0 0 M14.3915 53.8917 L18.4714 53.8917 L18.4714 54.8755 L12.9853 54.8755 L12.9853 53.8917 Q13.6508 53.203 14.7966 52.0456 Q15.9482 50.8824 16.2434 50.5468 Q16.8047 49.916 17.0246 49.482 Q17.2503 49.0422 17.2503 48.6197 Q17.2503 47.9311 16.7642 47.497 Q16.2839 47.063 15.5084 47.063 Q14.9587 47.063 14.3452 47.254 Q13.7376 47.445 13.0432 47.8327 L13.0432 46.6521 Q13.7492 46.3686 14.3626 46.2239 Q14.976 46.0792 15.4853 46.0792 Q16.8279 46.0792 17.6265 46.7505 Q18.4251 47.4218 18.4251 48.5445 Q18.4251 49.0769 18.2225 49.5572 Q18.0258 50.0318 17.4992 50.6799 Q17.3545 50.8477 16.579 51.6521 Q15.8036 52.4507 14.3915 53.8917 Z" fill="#000000" fill-rule="evenodd" fill-opacity="1"></path><path clip-path="url(#clip650)" d="M 0 0 M19.7387 53.4056 L20.9598 53.4056 L20.9598 54.8755 L19.7387 54.8755 L19.7387 53.4056 Z" fill="#000000" fill-rule="evenodd" fill-opacity="1"></path><path clip-path="url(#clip650)" d="M 0 0 M24.7271 47.0052 Q23.8244 47.0052 23.3672 47.8964 Q22.9158 48.7818 22.9158 50.5642 Q22.9158 52.3408 23.3672 53.232 Q23.8244 54.1174 24.7271 54.1174 Q25.6357 54.1174 26.0871 53.232 Q26.5443 52.3408 26.5443 50.5642 Q26.5443 48.7818 26.0871 47.8964 Q25.6357 47.0052 24.7271 47.0052 M24.7271 46.0792 Q26.1797 46.0792 26.9436 47.2308 Q27.7132 48.3767 27.7132 50.5642 Q27.7132 52.7459 26.9436 53.8975 Q26.1797 55.0433 24.7271 55.0433 Q23.2746 55.0433 22.5049 53.8975 Q21.741 52.7459 21.741 50.5642 Q21.741 48.3767 22.5049 47.2308 Q23.2746 46.0792 24.7271 46.0792 Z" fill="#000000" fill-rule="evenodd" fill-opacity="1"></path><circle clip-path="url(#clip652)" cx="364.477" cy="21.9941" r="3" fill="#009af9" fill-rule="evenodd" fill-opacity="1" stroke="#000000" stroke-opacity="1" stroke-width="0.8"></circle>
<circle clip-path="url(#clip652)" cx="208.399" cy="339.802" r="3" fill="#009af9" fill-rule="evenodd" fill-opacity="1" stroke="#000000" stroke-opacity="1" stroke-width="0.8"></circle>
<circle clip-path="url(#clip652)" cx="208.399" cy="343.599" r="3" fill="#009af9" fill-rule="evenodd" fill-opacity="1" stroke="#000000" stroke-opacity="1" stroke-width="0.8"></circle>
<circle clip-path="url(#clip652)" cx="104.347" cy="339.306" r="3" fill="#009af9" fill-rule="evenodd" fill-opacity="1" stroke="#000000" stroke-opacity="1" stroke-width="0.8"></circle>
<circle clip-path="url(#clip652)" cx="156.373" cy="348.056" r="3" fill="#009af9" fill-rule="evenodd" fill-opacity="1" stroke="#000000" stroke-opacity="1" stroke-width="0.8"></circle>
<circle clip-path="url(#clip652)" cx="416.503" cy="315.533" r="3" fill="#009af9" fill-rule="evenodd" fill-opacity="1" stroke="#000000" stroke-opacity="1" stroke-width="0.8"></circle>
<circle clip-path="url(#clip652)" cx="208.399" cy="349.212" r="3" fill="#009af9" fill-rule="evenodd" fill-opacity="1" stroke="#000000" stroke-opacity="1" stroke-width="0.8"></circle>
<circle clip-path="url(#clip652)" cx="364.477" cy="305.627" r="3" fill="#009af9" fill-rule="evenodd" fill-opacity="1" stroke="#000000" stroke-opacity="1" stroke-width="0.8"></circle>
<circle clip-path="url(#clip652)" cx="416.503" cy="326.264" r="3" fill="#009af9" fill-rule="evenodd" fill-opacity="1" stroke="#000000" stroke-opacity="1" stroke-width="0.8"></circle>
<circle clip-path="url(#clip652)" cx="312.451" cy="327.254" r="3" fill="#009af9" fill-rule="evenodd" fill-opacity="1" stroke="#000000" stroke-opacity="1" stroke-width="0.8"></circle>
<circle clip-path="url(#clip652)" cx="52.321" cy="353.009" r="3" fill="#009af9" fill-rule="evenodd" fill-opacity="1" stroke="#000000" stroke-opacity="1" stroke-width="0.8"></circle>
<circle clip-path="url(#clip652)" cx="104.347" cy="349.377" r="3" fill="#009af9" fill-rule="evenodd" fill-opacity="1" stroke="#000000" stroke-opacity="1" stroke-width="0.8"></circle>
<circle clip-path="url(#clip652)" cx="52.321" cy="353.009" r="3" fill="#009af9" fill-rule="evenodd" fill-opacity="1" stroke="#000000" stroke-opacity="1" stroke-width="0.8"></circle>
<circle clip-path="url(#clip652)" cx="416.503" cy="304.306" r="3" fill="#009af9" fill-rule="evenodd" fill-opacity="1" stroke="#000000" stroke-opacity="1" stroke-width="0.8"></circle>
<circle clip-path="url(#clip652)" cx="364.477" cy="278.386" r="3" fill="#009af9" fill-rule="evenodd" fill-opacity="1" stroke="#000000" stroke-opacity="1" stroke-width="0.8"></circle>
<circle clip-path="url(#clip652)" cx="208.399" cy="343.599" r="3" fill="#009af9" fill-rule="evenodd" fill-opacity="1" stroke="#000000" stroke-opacity="1" stroke-width="0.8"></circle>
<circle clip-path="url(#clip652)" cx="104.347" cy="348.221" r="3" fill="#009af9" fill-rule="evenodd" fill-opacity="1" stroke="#000000" stroke-opacity="1" stroke-width="0.8"></circle>
<circle clip-path="url(#clip652)" cx="312.451" cy="340.627" r="3" fill="#009af9" fill-rule="evenodd" fill-opacity="1" stroke="#000000" stroke-opacity="1" stroke-width="0.8"></circle>
<circle clip-path="url(#clip652)" cx="260.425" cy="342.113" r="3" fill="#009af9" fill-rule="evenodd" fill-opacity="1" stroke="#000000" stroke-opacity="1" stroke-width="0.8"></circle>
<circle clip-path="url(#clip652)" cx="468.529" cy="291.924" r="3" fill="#009af9" fill-rule="evenodd" fill-opacity="1" stroke="#000000" stroke-opacity="1" stroke-width="0.8"></circle>
<circle clip-path="url(#clip652)" cx="156.373" cy="344.094" r="3" fill="#009af9" fill-rule="evenodd" fill-opacity="1" stroke="#000000" stroke-opacity="1" stroke-width="0.8"></circle>
<circle clip-path="url(#clip652)" cx="156.373" cy="313.386" r="3" fill="#009af9" fill-rule="evenodd" fill-opacity="1" stroke="#000000" stroke-opacity="1" stroke-width="0.8"></circle>
<circle clip-path="url(#clip652)" cx="52.321" cy="352.844" r="3" fill="#009af9" fill-rule="evenodd" fill-opacity="1" stroke="#000000" stroke-opacity="1" stroke-width="0.8"></circle>
<circle clip-path="url(#clip652)" cx="312.451" cy="329.07" r="3" fill="#009af9" fill-rule="evenodd" fill-opacity="1" stroke="#000000" stroke-opacity="1" stroke-width="0.8"></circle>
<circle clip-path="url(#clip652)" cx="52.321" cy="353.009" r="3" fill="#009af9" fill-rule="evenodd" fill-opacity="1" stroke="#000000" stroke-opacity="1" stroke-width="0.8"></circle>
<circle clip-path="url(#clip652)" cx="312.451" cy="319.66" r="3" fill="#009af9" fill-rule="evenodd" fill-opacity="1" stroke="#000000" stroke-opacity="1" stroke-width="0.8"></circle>
<circle clip-path="url(#clip652)" cx="156.373" cy="347.891" r="3" fill="#009af9" fill-rule="evenodd" fill-opacity="1" stroke="#000000" stroke-opacity="1" stroke-width="0.8"></circle>
<circle clip-path="url(#clip652)" cx="52.321" cy="352.844" r="3" fill="#009af9" fill-rule="evenodd" fill-opacity="1" stroke="#000000" stroke-opacity="1" stroke-width="0.8"></circle>
<circle clip-path="url(#clip652)" cx="208.399" cy="334.188" r="3" fill="#009af9" fill-rule="evenodd" fill-opacity="1" stroke="#000000" stroke-opacity="1" stroke-width="0.8"></circle>
<circle clip-path="url(#clip652)" cx="312.451" cy="323.787" r="3" fill="#009af9" fill-rule="evenodd" fill-opacity="1" stroke="#000000" stroke-opacity="1" stroke-width="0.8"></circle>
<circle clip-path="url(#clip652)" cx="416.503" cy="270.957" r="3" fill="#009af9" fill-rule="evenodd" fill-opacity="1" stroke="#000000" stroke-opacity="1" stroke-width="0.8"></circle>
<circle clip-path="url(#clip652)" cx="312.451" cy="319.99" r="3" fill="#009af9" fill-rule="evenodd" fill-opacity="1" stroke="#000000" stroke-opacity="1" stroke-width="0.8"></circle>
<circle clip-path="url(#clip652)" cx="208.399" cy="336.004" r="3" fill="#009af9" fill-rule="evenodd" fill-opacity="1" stroke="#000000" stroke-opacity="1" stroke-width="0.8"></circle>
<circle clip-path="url(#clip652)" cx="52.321" cy="351.028" r="3" fill="#009af9" fill-rule="evenodd" fill-opacity="1" stroke="#000000" stroke-opacity="1" stroke-width="0.8"></circle>
<circle clip-path="url(#clip652)" cx="104.347" cy="349.707" r="3" fill="#009af9" fill-rule="evenodd" fill-opacity="1" stroke="#000000" stroke-opacity="1" stroke-width="0.8"></circle>
<circle clip-path="url(#clip652)" cx="416.503" cy="327.915" r="3" fill="#009af9" fill-rule="evenodd" fill-opacity="1" stroke="#000000" stroke-opacity="1" stroke-width="0.8"></circle>
<circle clip-path="url(#clip652)" cx="52.321" cy="351.523" r="3" fill="#009af9" fill-rule="evenodd" fill-opacity="1" stroke="#000000" stroke-opacity="1" stroke-width="0.8"></circle>
<circle clip-path="url(#clip652)" cx="208.399" cy="329.566" r="3" fill="#009af9" fill-rule="evenodd" fill-opacity="1" stroke="#000000" stroke-opacity="1" stroke-width="0.8"></circle>
<circle clip-path="url(#clip652)" cx="312.451" cy="327.419" r="3" fill="#009af9" fill-rule="evenodd" fill-opacity="1" stroke="#000000" stroke-opacity="1" stroke-width="0.8"></circle>
<circle clip-path="url(#clip652)" cx="468.529" cy="305.627" r="3" fill="#009af9" fill-rule="evenodd" fill-opacity="1" stroke="#000000" stroke-opacity="1" stroke-width="0.8"></circle>
<circle clip-path="url(#clip652)" cx="312.451" cy="343.103" r="3" fill="#009af9" fill-rule="evenodd" fill-opacity="1" stroke="#000000" stroke-opacity="1" stroke-width="0.8"></circle>
<circle clip-path="url(#clip652)" cx="364.477" cy="337.325" r="3" fill="#009af9" fill-rule="evenodd" fill-opacity="1" stroke="#000000" stroke-opacity="1" stroke-width="0.8"></circle>
<circle clip-path="url(#clip652)" cx="208.399" cy="339.141" r="3" fill="#009af9" fill-rule="evenodd" fill-opacity="1" stroke="#000000" stroke-opacity="1" stroke-width="0.8"></circle>
<circle clip-path="url(#clip652)" cx="156.373" cy="341.287" r="3" fill="#009af9" fill-rule="evenodd" fill-opacity="1" stroke="#000000" stroke-opacity="1" stroke-width="0.8"></circle>
<circle clip-path="url(#clip652)" cx="364.477" cy="304.141" r="3" fill="#009af9" fill-rule="evenodd" fill-opacity="1" stroke="#000000" stroke-opacity="1" stroke-width="0.8"></circle>
<circle clip-path="url(#clip652)" cx="260.425" cy="163.976" r="3" fill="#009af9" fill-rule="evenodd" fill-opacity="1" stroke="#000000" stroke-opacity="1" stroke-width="0.8"></circle>
<circle clip-path="url(#clip652)" cx="468.529" cy="139.211" r="3" fill="#009af9" fill-rule="evenodd" fill-opacity="1" stroke="#000000" stroke-opacity="1" stroke-width="0.8"></circle>
<circle clip-path="url(#clip652)" cx="260.425" cy="322.467" r="3" fill="#009af9" fill-rule="evenodd" fill-opacity="1" stroke="#000000" stroke-opacity="1" stroke-width="0.8"></circle>
<circle clip-path="url(#clip652)" cx="208.399" cy="342.608" r="3" fill="#009af9" fill-rule="evenodd" fill-opacity="1" stroke="#000000" stroke-opacity="1" stroke-width="0.8"></circle>
<circle clip-path="url(#clip652)" cx="208.399" cy="348.221" r="3" fill="#009af9" fill-rule="evenodd" fill-opacity="1" stroke="#000000" stroke-opacity="1" stroke-width="0.8"></circle>
<circle clip-path="url(#clip652)" cx="312.451" cy="342.443" r="3" fill="#009af9" fill-rule="evenodd" fill-opacity="1" stroke="#000000" stroke-opacity="1" stroke-width="0.8"></circle>
<circle clip-path="url(#clip652)" cx="416.503" cy="343.764" r="3" fill="#009af9" fill-rule="evenodd" fill-opacity="1" stroke="#000000" stroke-opacity="1" stroke-width="0.8"></circle>
<circle clip-path="url(#clip652)" cx="260.425" cy="338.481" r="3" fill="#009af9" fill-rule="evenodd" fill-opacity="1" stroke="#000000" stroke-opacity="1" stroke-width="0.8"></circle>
<circle clip-path="url(#clip652)" cx="520.555" cy="260.721" r="3" fill="#009af9" fill-rule="evenodd" fill-opacity="1" stroke="#000000" stroke-opacity="1" stroke-width="0.8"></circle>
<circle clip-path="url(#clip652)" cx="156.373" cy="345.91" r="3" fill="#009af9" fill-rule="evenodd" fill-opacity="1" stroke="#000000" stroke-opacity="1" stroke-width="0.8"></circle>
<circle clip-path="url(#clip652)" cx="208.399" cy="347.231" r="3" fill="#009af9" fill-rule="evenodd" fill-opacity="1" stroke="#000000" stroke-opacity="1" stroke-width="0.8"></circle>
<circle clip-path="url(#clip652)" cx="52.321" cy="355.816" r="3" fill="#009af9" fill-rule="evenodd" fill-opacity="1" stroke="#000000" stroke-opacity="1" stroke-width="0.8"></circle>
<circle clip-path="url(#clip652)" cx="364.477" cy="285.816" r="3" fill="#009af9" fill-rule="evenodd" fill-opacity="1" stroke="#000000" stroke-opacity="1" stroke-width="0.8"></circle>
<circle clip-path="url(#clip652)" cx="208.399" cy="260.886" r="3" fill="#009af9" fill-rule="evenodd" fill-opacity="1" stroke="#000000" stroke-opacity="1" stroke-width="0.8"></circle>
<circle clip-path="url(#clip652)" cx="520.555" cy="314.212" r="3" fill="#009af9" fill-rule="evenodd" fill-opacity="1" stroke="#000000" stroke-opacity="1" stroke-width="0.8"></circle>
<circle clip-path="url(#clip652)" cx="520.555" cy="266.334" r="3" fill="#009af9" fill-rule="evenodd" fill-opacity="1" stroke="#000000" stroke-opacity="1" stroke-width="0.8"></circle>
<circle clip-path="url(#clip652)" cx="52.321" cy="357.302" r="3" fill="#009af9" fill-rule="evenodd" fill-opacity="1" stroke="#000000" stroke-opacity="1" stroke-width="0.8"></circle>
<circle clip-path="url(#clip652)" cx="312.451" cy="303.976" r="3" fill="#009af9" fill-rule="evenodd" fill-opacity="1" stroke="#000000" stroke-opacity="1" stroke-width="0.8"></circle>
<circle clip-path="url(#clip652)" cx="364.477" cy="335.014" r="3" fill="#009af9" fill-rule="evenodd" fill-opacity="1" stroke="#000000" stroke-opacity="1" stroke-width="0.8"></circle>
<circle clip-path="url(#clip652)" cx="468.529" cy="296.877" r="3" fill="#009af9" fill-rule="evenodd" fill-opacity="1" stroke="#000000" stroke-opacity="1" stroke-width="0.8"></circle>
<circle clip-path="url(#clip652)" cx="364.477" cy="257.749" r="3" fill="#009af9" fill-rule="evenodd" fill-opacity="1" stroke="#000000" stroke-opacity="1" stroke-width="0.8"></circle>
<circle clip-path="url(#clip652)" cx="260.425" cy="190.556" r="3" fill="#009af9" fill-rule="evenodd" fill-opacity="1" stroke="#000000" stroke-opacity="1" stroke-width="0.8"></circle>
<circle clip-path="url(#clip652)" cx="468.529" cy="310.91" r="3" fill="#009af9" fill-rule="evenodd" fill-opacity="1" stroke="#000000" stroke-opacity="1" stroke-width="0.8"></circle>
<circle clip-path="url(#clip652)" cx="364.477" cy="313.551" r="3" fill="#009af9" fill-rule="evenodd" fill-opacity="1" stroke="#000000" stroke-opacity="1" stroke-width="0.8"></circle>
<circle clip-path="url(#clip652)" cx="260.425" cy="293.905" r="3" fill="#009af9" fill-rule="evenodd" fill-opacity="1" stroke="#000000" stroke-opacity="1" stroke-width="0.8"></circle>
<circle clip-path="url(#clip652)" cx="156.373" cy="337.49" r="3" fill="#009af9" fill-rule="evenodd" fill-opacity="1" stroke="#000000" stroke-opacity="1" stroke-width="0.8"></circle>
<circle clip-path="url(#clip652)" cx="364.477" cy="274.589" r="3" fill="#009af9" fill-rule="evenodd" fill-opacity="1" stroke="#000000" stroke-opacity="1" stroke-width="0.8"></circle>
<circle clip-path="url(#clip652)" cx="468.529" cy="305.792" r="3" fill="#009af9" fill-rule="evenodd" fill-opacity="1" stroke="#000000" stroke-opacity="1" stroke-width="0.8"></circle>
<circle clip-path="url(#clip652)" cx="364.477" cy="282.349" r="3" fill="#009af9" fill-rule="evenodd" fill-opacity="1" stroke="#000000" stroke-opacity="1" stroke-width="0.8"></circle>
<circle clip-path="url(#clip652)" cx="520.555" cy="330.556" r="3" fill="#009af9" fill-rule="evenodd" fill-opacity="1" stroke="#000000" stroke-opacity="1" stroke-width="0.8"></circle>
<circle clip-path="url(#clip652)" cx="572.581" cy="302.82" r="3" fill="#009af9" fill-rule="evenodd" fill-opacity="1" stroke="#000000" stroke-opacity="1" stroke-width="0.8"></circle>
<circle clip-path="url(#clip652)" cx="416.503" cy="293.575" r="3" fill="#009af9" fill-rule="evenodd" fill-opacity="1" stroke="#000000" stroke-opacity="1" stroke-width="0.8"></circle>
<circle clip-path="url(#clip652)" cx="104.347" cy="356.641" r="3" fill="#009af9" fill-rule="evenodd" fill-opacity="1" stroke="#000000" stroke-opacity="1" stroke-width="0.8"></circle>
<circle clip-path="url(#clip652)" cx="364.477" cy="282.018" r="3" fill="#009af9" fill-rule="evenodd" fill-opacity="1" stroke="#000000" stroke-opacity="1" stroke-width="0.8"></circle>
<circle clip-path="url(#clip652)" cx="416.503" cy="172.726" r="3" fill="#009af9" fill-rule="evenodd" fill-opacity="1" stroke="#000000" stroke-opacity="1" stroke-width="0.8"></circle>
<circle clip-path="url(#clip652)" cx="312.451" cy="336.335" r="3" fill="#009af9" fill-rule="evenodd" fill-opacity="1" stroke="#000000" stroke-opacity="1" stroke-width="0.8"></circle>
<circle clip-path="url(#clip652)" cx="104.347" cy="357.302" r="3" fill="#009af9" fill-rule="evenodd" fill-opacity="1" stroke="#000000" stroke-opacity="1" stroke-width="0.8"></circle>
<circle clip-path="url(#clip652)" cx="260.425" cy="329.401" r="3" fill="#009af9" fill-rule="evenodd" fill-opacity="1" stroke="#000000" stroke-opacity="1" stroke-width="0.8"></circle>
<circle clip-path="url(#clip652)" cx="364.477" cy="227.867" r="3" fill="#009af9" fill-rule="evenodd" fill-opacity="1" stroke="#000000" stroke-opacity="1" stroke-width="0.8"></circle>
<circle clip-path="url(#clip652)" cx="52.321" cy="360.603" r="3" fill="#009af9" fill-rule="evenodd" fill-opacity="1" stroke="#000000" stroke-opacity="1" stroke-width="0.8"></circle>
<circle clip-path="url(#clip652)" cx="260.425" cy="345.58" r="3" fill="#009af9" fill-rule="evenodd" fill-opacity="1" stroke="#000000" stroke-opacity="1" stroke-width="0.8"></circle>
<circle clip-path="url(#clip652)" cx="312.451" cy="327.585" r="3" fill="#009af9" fill-rule="evenodd" fill-opacity="1" stroke="#000000" stroke-opacity="1" stroke-width="0.8"></circle>
<circle clip-path="url(#clip652)" cx="416.503" cy="314.212" r="3" fill="#009af9" fill-rule="evenodd" fill-opacity="1" stroke="#000000" stroke-opacity="1" stroke-width="0.8"></circle>
<circle clip-path="url(#clip652)" cx="312.451" cy="347.726" r="3" fill="#009af9" fill-rule="evenodd" fill-opacity="1" stroke="#000000" stroke-opacity="1" stroke-width="0.8"></circle>
<circle clip-path="url(#clip652)" cx="364.477" cy="323.457" r="3" fill="#009af9" fill-rule="evenodd" fill-opacity="1" stroke="#000000" stroke-opacity="1" stroke-width="0.8"></circle>
<circle clip-path="url(#clip652)" cx="260.425" cy="335.344" r="3" fill="#009af9" fill-rule="evenodd" fill-opacity="1" stroke="#000000" stroke-opacity="1" stroke-width="0.8"></circle>
<circle clip-path="url(#clip652)" cx="260.425" cy="339.636" r="3" fill="#009af9" fill-rule="evenodd" fill-opacity="1" stroke="#000000" stroke-opacity="1" stroke-width="0.8"></circle>
<circle clip-path="url(#clip652)" cx="416.503" cy="346.075" r="3" fill="#009af9" fill-rule="evenodd" fill-opacity="1" stroke="#000000" stroke-opacity="1" stroke-width="0.8"></circle>
<circle clip-path="url(#clip652)" cx="416.503" cy="333.033" r="3" fill="#009af9" fill-rule="evenodd" fill-opacity="1" stroke="#000000" stroke-opacity="1" stroke-width="0.8"></circle>
<circle clip-path="url(#clip652)" cx="312.451" cy="342.938" r="3" fill="#009af9" fill-rule="evenodd" fill-opacity="1" stroke="#000000" stroke-opacity="1" stroke-width="0.8"></circle>
<circle clip-path="url(#clip652)" cx="260.425" cy="337.49" r="3" fill="#009af9" fill-rule="evenodd" fill-opacity="1" stroke="#000000" stroke-opacity="1" stroke-width="0.8"></circle>
<circle clip-path="url(#clip652)" cx="416.503" cy="313.717" r="3" fill="#009af9" fill-rule="evenodd" fill-opacity="1" stroke="#000000" stroke-opacity="1" stroke-width="0.8"></circle>
<circle clip-path="url(#clip652)" cx="416.503" cy="332.042" r="3" fill="#009af9" fill-rule="evenodd" fill-opacity="1" stroke="#000000" stroke-opacity="1" stroke-width="0.8"></circle>
<circle clip-path="url(#clip652)" cx="416.503" cy="332.042" r="3" fill="#009af9" fill-rule="evenodd" fill-opacity="1" stroke="#000000" stroke-opacity="1" stroke-width="0.8"></circle>
<circle clip-path="url(#clip652)" cx="416.503" cy="337.325" r="3" fill="#009af9" fill-rule="evenodd" fill-opacity="1" stroke="#000000" stroke-opacity="1" stroke-width="0.8"></circle>
<circle clip-path="url(#clip652)" cx="416.503" cy="314.212" r="3" fill="#009af9" fill-rule="evenodd" fill-opacity="1" stroke="#000000" stroke-opacity="1" stroke-width="0.8"></circle>
<circle clip-path="url(#clip652)" cx="364.477" cy="349.212" r="3" fill="#009af9" fill-rule="evenodd" fill-opacity="1" stroke="#000000" stroke-opacity="1" stroke-width="0.8"></circle>
<circle clip-path="url(#clip652)" cx="468.529" cy="322.302" r="3" fill="#009af9" fill-rule="evenodd" fill-opacity="1" stroke="#000000" stroke-opacity="1" stroke-width="0.8"></circle>
<circle clip-path="url(#clip652)" cx="416.503" cy="317.514" r="3" fill="#009af9" fill-rule="evenodd" fill-opacity="1" stroke="#000000" stroke-opacity="1" stroke-width="0.8"></circle>
<circle clip-path="url(#clip652)" cx="260.425" cy="346.735" r="3" fill="#009af9" fill-rule="evenodd" fill-opacity="1" stroke="#000000" stroke-opacity="1" stroke-width="0.8"></circle>
<circle clip-path="url(#clip652)" cx="364.477" cy="344.424" r="3" fill="#009af9" fill-rule="evenodd" fill-opacity="1" stroke="#000000" stroke-opacity="1" stroke-width="0.8"></circle>
<circle clip-path="url(#clip652)" cx="468.529" cy="334.518" r="3" fill="#009af9" fill-rule="evenodd" fill-opacity="1" stroke="#000000" stroke-opacity="1" stroke-width="0.8"></circle>
<circle clip-path="url(#clip652)" cx="468.529" cy="315.863" r="3" fill="#009af9" fill-rule="evenodd" fill-opacity="1" stroke="#000000" stroke-opacity="1" stroke-width="0.8"></circle>
<circle clip-path="url(#clip652)" cx="312.451" cy="305.132" r="3" fill="#009af9" fill-rule="evenodd" fill-opacity="1" stroke="#000000" stroke-opacity="1" stroke-width="0.8"></circle>
<circle clip-path="url(#clip652)" cx="156.373" cy="352.844" r="3" fill="#009af9" fill-rule="evenodd" fill-opacity="1" stroke="#000000" stroke-opacity="1" stroke-width="0.8"></circle>
<circle clip-path="url(#clip652)" cx="208.399" cy="353.174" r="3" fill="#009af9" fill-rule="evenodd" fill-opacity="1" stroke="#000000" stroke-opacity="1" stroke-width="0.8"></circle>
<circle clip-path="url(#clip652)" cx="208.399" cy="350.368" r="3" fill="#009af9" fill-rule="evenodd" fill-opacity="1" stroke="#000000" stroke-opacity="1" stroke-width="0.8"></circle>
<circle clip-path="url(#clip652)" cx="156.373" cy="352.679" r="3" fill="#009af9" fill-rule="evenodd" fill-opacity="1" stroke="#000000" stroke-opacity="1" stroke-width="0.8"></circle>
<circle clip-path="url(#clip652)" cx="52.321" cy="361.429" r="3" fill="#009af9" fill-rule="evenodd" fill-opacity="1" stroke="#000000" stroke-opacity="1" stroke-width="0.8"></circle>
<circle clip-path="url(#clip652)" cx="52.321" cy="360.273" r="3" fill="#009af9" fill-rule="evenodd" fill-opacity="1" stroke="#000000" stroke-opacity="1" stroke-width="0.8"></circle>
<circle clip-path="url(#clip652)" cx="364.477" cy="333.693" r="3" fill="#009af9" fill-rule="evenodd" fill-opacity="1" stroke="#000000" stroke-opacity="1" stroke-width="0.8"></circle>
<circle clip-path="url(#clip652)" cx="260.425" cy="347.066" r="3" fill="#009af9" fill-rule="evenodd" fill-opacity="1" stroke="#000000" stroke-opacity="1" stroke-width="0.8"></circle>
<circle clip-path="url(#clip652)" cx="364.477" cy="306.783" r="3" fill="#009af9" fill-rule="evenodd" fill-opacity="1" stroke="#000000" stroke-opacity="1" stroke-width="0.8"></circle>
<circle clip-path="url(#clip652)" cx="364.477" cy="332.042" r="3" fill="#009af9" fill-rule="evenodd" fill-opacity="1" stroke="#000000" stroke-opacity="1" stroke-width="0.8"></circle>
<circle clip-path="url(#clip652)" cx="468.529" cy="316.028" r="3" fill="#009af9" fill-rule="evenodd" fill-opacity="1" stroke="#000000" stroke-opacity="1" stroke-width="0.8"></circle>
<circle clip-path="url(#clip652)" cx="364.477" cy="337.325" r="3" fill="#009af9" fill-rule="evenodd" fill-opacity="1" stroke="#000000" stroke-opacity="1" stroke-width="0.8"></circle>
<circle clip-path="url(#clip652)" cx="52.321" cy="361.099" r="3" fill="#009af9" fill-rule="evenodd" fill-opacity="1" stroke="#000000" stroke-opacity="1" stroke-width="0.8"></circle>
<circle clip-path="url(#clip652)" cx="468.529" cy="287.797" r="3" fill="#009af9" fill-rule="evenodd" fill-opacity="1" stroke="#000000" stroke-opacity="1" stroke-width="0.8"></circle>
<circle clip-path="url(#clip652)" cx="416.503" cy="309.424" r="3" fill="#009af9" fill-rule="evenodd" fill-opacity="1" stroke="#000000" stroke-opacity="1" stroke-width="0.8"></circle>
<circle clip-path="url(#clip652)" cx="364.477" cy="323.787" r="3" fill="#009af9" fill-rule="evenodd" fill-opacity="1" stroke="#000000" stroke-opacity="1" stroke-width="0.8"></circle>
<circle clip-path="url(#clip652)" cx="416.503" cy="345.25" r="3" fill="#009af9" fill-rule="evenodd" fill-opacity="1" stroke="#000000" stroke-opacity="1" stroke-width="0.8"></circle>
<circle clip-path="url(#clip652)" cx="208.399" cy="332.868" r="3" fill="#009af9" fill-rule="evenodd" fill-opacity="1" stroke="#000000" stroke-opacity="1" stroke-width="0.8"></circle>
<circle clip-path="url(#clip652)" cx="312.451" cy="347.231" r="3" fill="#009af9" fill-rule="evenodd" fill-opacity="1" stroke="#000000" stroke-opacity="1" stroke-width="0.8"></circle>
<circle clip-path="url(#clip652)" cx="468.529" cy="329.235" r="3" fill="#009af9" fill-rule="evenodd" fill-opacity="1" stroke="#000000" stroke-opacity="1" stroke-width="0.8"></circle>
<circle clip-path="url(#clip652)" cx="468.529" cy="297.372" r="3" fill="#009af9" fill-rule="evenodd" fill-opacity="1" stroke="#000000" stroke-opacity="1" stroke-width="0.8"></circle>
<circle clip-path="url(#clip652)" cx="312.451" cy="350.368" r="3" fill="#009af9" fill-rule="evenodd" fill-opacity="1" stroke="#000000" stroke-opacity="1" stroke-width="0.8"></circle>
<circle clip-path="url(#clip652)" cx="312.451" cy="324.283" r="3" fill="#009af9" fill-rule="evenodd" fill-opacity="1" stroke="#000000" stroke-opacity="1" stroke-width="0.8"></circle>
<circle clip-path="url(#clip652)" cx="416.503" cy="343.599" r="3" fill="#009af9" fill-rule="evenodd" fill-opacity="1" stroke="#000000" stroke-opacity="1" stroke-width="0.8"></circle>
<circle clip-path="url(#clip652)" cx="468.529" cy="326.099" r="3" fill="#009af9" fill-rule="evenodd" fill-opacity="1" stroke="#000000" stroke-opacity="1" stroke-width="0.8"></circle>
<circle clip-path="url(#clip652)" cx="364.477" cy="350.863" r="3" fill="#009af9" fill-rule="evenodd" fill-opacity="1" stroke="#000000" stroke-opacity="1" stroke-width="0.8"></circle>
<circle clip-path="url(#clip652)" cx="364.477" cy="335.839" r="3" fill="#009af9" fill-rule="evenodd" fill-opacity="1" stroke="#000000" stroke-opacity="1" stroke-width="0.8"></circle>
<circle clip-path="url(#clip652)" cx="104.347" cy="358.457" r="3" fill="#009af9" fill-rule="evenodd" fill-opacity="1" stroke="#000000" stroke-opacity="1" stroke-width="0.8"></circle>
<circle clip-path="url(#clip652)" cx="104.347" cy="357.797" r="3" fill="#009af9" fill-rule="evenodd" fill-opacity="1" stroke="#000000" stroke-opacity="1" stroke-width="0.8"></circle>
<circle clip-path="url(#clip652)" cx="312.451" cy="327.915" r="3" fill="#009af9" fill-rule="evenodd" fill-opacity="1" stroke="#000000" stroke-opacity="1" stroke-width="0.8"></circle>
<circle clip-path="url(#clip652)" cx="312.451" cy="342.608" r="3" fill="#009af9" fill-rule="evenodd" fill-opacity="1" stroke="#000000" stroke-opacity="1" stroke-width="0.8"></circle>
<circle clip-path="url(#clip652)" cx="104.347" cy="358.953" r="3" fill="#009af9" fill-rule="evenodd" fill-opacity="1" stroke="#000000" stroke-opacity="1" stroke-width="0.8"></circle>
<circle clip-path="url(#clip652)" cx="312.451" cy="348.221" r="3" fill="#009af9" fill-rule="evenodd" fill-opacity="1" stroke="#000000" stroke-opacity="1" stroke-width="0.8"></circle>
<circle clip-path="url(#clip652)" cx="104.347" cy="358.457" r="3" fill="#009af9" fill-rule="evenodd" fill-opacity="1" stroke="#000000" stroke-opacity="1" stroke-width="0.8"></circle>
<circle clip-path="url(#clip652)" cx="468.529" cy="324.448" r="3" fill="#009af9" fill-rule="evenodd" fill-opacity="1" stroke="#000000" stroke-opacity="1" stroke-width="0.8"></circle>
<circle clip-path="url(#clip652)" cx="104.347" cy="355.155" r="3" fill="#009af9" fill-rule="evenodd" fill-opacity="1" stroke="#000000" stroke-opacity="1" stroke-width="0.8"></circle>
<circle clip-path="url(#clip652)" cx="416.503" cy="336.995" r="3" fill="#009af9" fill-rule="evenodd" fill-opacity="1" stroke="#000000" stroke-opacity="1" stroke-width="0.8"></circle>
<circle clip-path="url(#clip652)" cx="520.555" cy="209.542" r="3" fill="#009af9" fill-rule="evenodd" fill-opacity="1" stroke="#000000" stroke-opacity="1" stroke-width="0.8"></circle>
<circle clip-path="url(#clip652)" cx="364.477" cy="333.858" r="3" fill="#009af9" fill-rule="evenodd" fill-opacity="1" stroke="#000000" stroke-opacity="1" stroke-width="0.8"></circle>
<circle clip-path="url(#clip652)" cx="260.425" cy="282.514" r="3" fill="#009af9" fill-rule="evenodd" fill-opacity="1" stroke="#000000" stroke-opacity="1" stroke-width="0.8"></circle>
<circle clip-path="url(#clip652)" cx="364.477" cy="333.363" r="3" fill="#009af9" fill-rule="evenodd" fill-opacity="1" stroke="#000000" stroke-opacity="1" stroke-width="0.8"></circle>
<circle clip-path="url(#clip652)" cx="208.399" cy="342.443" r="3" fill="#009af9" fill-rule="evenodd" fill-opacity="1" stroke="#000000" stroke-opacity="1" stroke-width="0.8"></circle>
<circle clip-path="url(#clip652)" cx="312.451" cy="344.094" r="3" fill="#009af9" fill-rule="evenodd" fill-opacity="1" stroke="#000000" stroke-opacity="1" stroke-width="0.8"></circle>
<circle clip-path="url(#clip652)" cx="468.529" cy="306.783" r="3" fill="#009af9" fill-rule="evenodd" fill-opacity="1" stroke="#000000" stroke-opacity="1" stroke-width="0.8"></circle>
<circle clip-path="url(#clip652)" cx="416.503" cy="331.217" r="3" fill="#009af9" fill-rule="evenodd" fill-opacity="1" stroke="#000000" stroke-opacity="1" stroke-width="0.8"></circle>
<circle clip-path="url(#clip652)" cx="312.451" cy="348.882" r="3" fill="#009af9" fill-rule="evenodd" fill-opacity="1" stroke="#000000" stroke-opacity="1" stroke-width="0.8"></circle>
<circle clip-path="url(#clip652)" cx="520.555" cy="223.08" r="3" fill="#009af9" fill-rule="evenodd" fill-opacity="1" stroke="#000000" stroke-opacity="1" stroke-width="0.8"></circle>
<circle clip-path="url(#clip652)" cx="416.503" cy="336.995" r="3" fill="#009af9" fill-rule="evenodd" fill-opacity="1" stroke="#000000" stroke-opacity="1" stroke-width="0.8"></circle>
<circle clip-path="url(#clip652)" cx="208.399" cy="354.495" r="3" fill="#009af9" fill-rule="evenodd" fill-opacity="1" stroke="#000000" stroke-opacity="1" stroke-width="0.8"></circle>
<circle clip-path="url(#clip652)" cx="416.503" cy="350.037" r="3" fill="#009af9" fill-rule="evenodd" fill-opacity="1" stroke="#000000" stroke-opacity="1" stroke-width="0.8"></circle>
<circle clip-path="url(#clip652)" cx="260.425" cy="349.047" r="3" fill="#009af9" fill-rule="evenodd" fill-opacity="1" stroke="#000000" stroke-opacity="1" stroke-width="0.8"></circle>
<path clip-path="url(#clip650)" d="
M495.777 54.0444 L569.806 54.0444 L569.806 23.8044 L495.777 23.8044  Z
  " fill="#ffffff" fill-rule="evenodd" fill-opacity="1"></path>
<polyline clip-path="url(#clip650)" style="stroke:#000000; stroke-width:1; stroke-opacity:1; fill:none" points="
  495.777,54.0444 569.806,54.0444 569.806,23.8044 495.777,23.8044 495.777,54.0444 
  "></polyline>
<circle clip-path="url(#clip650)" cx="520.287" cy="38.9244" r="5" fill="#009af9" fill-rule="evenodd" fill-opacity="1" stroke="#000000" stroke-opacity="1" stroke-width="1.28"></circle>
<path clip-path="url(#clip650)" d="M 0 0 M548.258 43.8462 Q547.806 45.0036 547.378 45.3566 Q546.95 45.7097 546.232 45.7097 L545.381 45.7097 L545.381 44.8185 L546.006 44.8185 Q546.446 44.8185 546.689 44.6101 Q546.932 44.4018 547.227 43.6263 L547.418 43.1402 L544.797 36.7629 L545.925 36.7629 L547.951 41.8324 L549.976 36.7629 L551.105 36.7629 L548.258 43.8462 Z" fill="#000000" fill-rule="evenodd" fill-opacity="1"></path><path clip-path="url(#clip650)" d="M 0 0 M552.575 42.2606 L554.484 42.2606 L554.484 35.6692 L552.407 36.0859 L552.407 35.0211 L554.473 34.6044 L555.642 34.6044 L555.642 42.2606 L557.551 42.2606 L557.551 43.2444 L552.575 43.2444 L552.575 42.2606 Z" fill="#000000" fill-rule="evenodd" fill-opacity="1"></path></svg>